<?xml version="1.0" standalone="no"?>
<!DOCTYPE svg PUBLIC "-//W3C//DTD SVG 20010904//EN"
 "http://www.w3.org/TR/2001/REC-SVG-20010904/DTD/svg10.dtd">
<svg version="1.0" xmlns="http://www.w3.org/2000/svg"
 width="1080.000000pt" height="1041.000000pt" viewBox="0 0 1080.000000 1041.000000"
 preserveAspectRatio="xMidYMid meet">

<g transform="translate(0.000000,1041.000000) scale(0.100000,-0.100000)"
fill="#000000" stroke="none">
<path d="M5767 10188 c-12 -13 -25 -16 -42 -12 -14 3 -25 2 -25 -2 0 -10 -52
-13 -182 -13 -61 -1 -79 -4 -86 -17 -7 -12 -15 -15 -28 -9 -29 13 -56 14 -82
2 -16 -8 -26 -7 -34 1 -7 7 -30 12 -52 12 -31 0 -37 -3 -28 -12 7 -7 12 -15
12 -20 0 -9 -70 -8 -85 1 -20 12 -80 32 -107 36 -30 5 -48 -13 -27 -26 7 -4
10 -12 5 -16 -5 -4 -11 -2 -13 5 -7 19 -30 14 -47 -10 -13 -18 -26 -22 -103
-24 -48 -2 -113 -9 -143 -15 -30 -6 -65 -13 -78 -15 -13 -3 -20 -9 -17 -13 12
-21 -9 -39 -50 -44 -25 -4 -53 -11 -62 -16 -35 -17 -94 -33 -148 -38 -30 -3
-60 -12 -66 -19 -6 -8 -17 -14 -25 -14 -7 0 -22 -13 -33 -29 -15 -21 -33 -31
-61 -36 -22 -4 -50 -15 -64 -26 -13 -10 -38 -19 -56 -19 -23 0 -33 -5 -37 -18
-2 -11 -26 -28 -53 -40 -27 -12 -54 -31 -60 -43 -18 -33 -52 -69 -67 -69 -7 0
-38 -22 -68 -50 -30 -27 -63 -50 -73 -50 -9 0 -44 -29 -76 -65 -44 -48 -70
-68 -100 -76 -33 -9 -37 -13 -23 -20 9 -6 17 -15 17 -22 -1 -16 -43 -55 -107
-97 -29 -19 -53 -41 -53 -47 0 -7 -7 -13 -15 -13 -8 0 -15 -7 -15 -15 0 -8 5
-15 11 -15 18 0 0 -52 -27 -77 -13 -12 -24 -28 -24 -36 0 -23 -24 -39 -38 -25
-8 8 -13 -2 -18 -40 -3 -29 -10 -49 -15 -46 -5 3 -9 -1 -9 -8 0 -7 -9 -24 -19
-37 -10 -14 -17 -31 -14 -38 3 -7 -2 -13 -10 -13 -9 0 -23 -15 -32 -34 -9 -19
-23 -37 -31 -40 -8 -3 -14 -18 -14 -33 -1 -19 -14 -42 -45 -73 -48 -48 -54
-60 -30 -60 8 0 15 -8 15 -18 0 -23 -30 -52 -53 -52 -25 0 -47 -42 -52 -96 -2
-27 -4 -52 -4 -55 -1 -4 -20 -19 -42 -34 -30 -20 -38 -30 -30 -38 19 -19 12
-47 -15 -57 -21 -8 -25 -15 -20 -35 3 -14 9 -36 12 -49 4 -19 2 -24 -13 -23
-13 2 -19 -6 -21 -28 -2 -19 -18 -44 -42 -67 -22 -21 -36 -39 -32 -40 4 0 12
-2 17 -3 6 -2 18 -3 28 -4 22 -1 22 -27 1 -39 -12 -6 -15 -17 -11 -32 3 -13
-1 -37 -10 -53 -14 -28 -14 -32 1 -42 9 -7 16 -22 16 -34 0 -12 7 -24 15 -27
12 -5 9 -13 -12 -42 -15 -21 -33 -42 -41 -49 -12 -10 -12 -15 -3 -27 9 -10 9
-16 1 -21 -6 -4 -9 -13 -6 -21 3 -7 -1 -31 -8 -51 -18 -52 -27 -141 -15 -148
13 -9 11 -69 -3 -83 -7 -7 -8 -12 -2 -12 6 0 15 5 22 12 18 18 15 -17 -4 -55
-32 -62 -35 -68 -29 -77 4 -6 12 -10 20 -10 18 0 24 -20 14 -47 -6 -15 -2 -37
13 -70 24 -53 32 -121 16 -140 -10 -13 -12 -45 -8 -153 2 -77 18 -120 43 -120
14 0 16 -4 9 -17 -16 -31 -23 -103 -11 -103 7 0 9 -11 6 -27 -3 -16 1 -75 8
-133 24 -183 37 -303 39 -365 1 -33 6 -69 12 -80 6 -11 9 -26 6 -33 -2 -8 1
-24 8 -37 7 -13 10 -33 7 -45 -7 -26 8 -70 28 -86 8 -6 19 -42 25 -81 13 -95
24 -123 47 -117 23 6 48 -54 59 -141 5 -33 9 -64 10 -70 1 -5 2 -20 3 -32 3
-53 20 -16 35 75 9 53 21 120 27 147 5 28 12 82 14 120 3 39 9 95 15 125 10
53 27 180 35 265 2 22 11 72 21 110 9 39 17 95 18 125 1 34 8 65 19 80 19 27
24 75 6 64 -8 -4 -8 -1 -1 12 6 11 13 40 17 67 6 37 4 47 -7 47 -8 0 -19 -5
-26 -12 -9 -9 -12 -9 -12 0 0 7 9 20 20 29 29 25 27 55 -3 48 -12 -3 -34 -2
-47 4 -18 7 -20 10 -7 10 10 1 20 8 23 16 5 11 11 12 25 4 22 -12 56 -4 82 19
15 14 17 13 17 -6 0 -12 -8 -23 -20 -27 -14 -5 -20 -15 -20 -38 l0 -32 20 32
c10 18 31 39 45 49 27 17 34 44 11 44 -8 0 -16 15 -20 38 -9 54 -8 62 8 56 9
-4 15 5 18 25 4 25 2 28 -9 19 -8 -6 -21 -24 -29 -39 -7 -15 -22 -30 -31 -33
-10 -3 -24 -19 -31 -36 -9 -20 -21 -30 -35 -29 l-22 0 23 16 c12 8 22 20 22
26 0 6 12 21 28 33 24 20 25 25 15 43 -18 30 -17 55 3 47 18 -7 35 8 58 52 9
18 24 32 34 32 25 0 64 30 58 45 -3 8 8 15 30 18 54 9 107 87 58 87 -17 0 -18
14 -4 41 8 15 7 19 -5 19 -17 0 -20 11 -5 26 8 8 8 19 0 38 -5 15 -9 39 -9 54
1 17 3 21 6 10 5 -19 15 -23 26 -11 4 3 2 12 -4 19 -8 10 -5 23 12 50 13 21
18 34 12 31 -12 -7 -26 8 -29 31 -1 7 10 19 26 27 33 17 45 41 24 49 -8 3 -17
-1 -20 -9 -7 -17 -34 -21 -34 -5 0 6 7 10 15 10 8 0 15 5 15 10 0 6 -7 10 -16
10 -13 0 -11 6 7 31 12 18 31 34 41 37 10 2 18 8 18 13 0 5 6 6 13 4 6 -3 18
4 25 15 11 18 10 20 -12 20 -23 0 -24 2 -13 35 6 20 14 31 17 24 4 -6 18 -9
31 -7 17 2 25 10 27 30 4 31 41 59 74 55 14 -1 22 3 21 10 -2 8 4 10 13 6 11
-4 23 2 33 16 9 12 25 23 35 25 9 1 30 14 46 29 15 15 33 27 40 27 9 0 123 51
185 83 11 5 27 13 35 17 85 39 111 50 149 65 25 9 57 27 72 39 24 20 98 42
123 37 5 -1 12 2 15 7 12 17 106 63 150 73 26 6 100 15 166 20 66 5 132 11
148 15 20 4 27 2 27 -10 0 -9 5 -16 10 -16 6 0 10 7 10 15 0 10 10 15 30 15
19 0 28 -4 25 -13 -4 -9 14 -11 77 -8 93 4 137 16 121 32 -6 6 -29 13 -52 16
-25 4 -41 11 -41 19 0 20 49 18 91 -4 23 -12 50 -17 73 -14 22 3 36 0 36 -7 0
-6 -11 -11 -25 -11 -14 0 -25 -5 -25 -11 0 -6 19 -9 50 -8 27 2 53 0 56 -4 13
-12 109 -7 129 7 11 7 51 16 89 19 37 4 74 12 82 18 8 6 20 9 28 6 23 -9 118
19 128 37 7 12 14 13 35 5 20 -7 30 -6 44 7 24 22 24 36 -1 52 -11 7 -20 16
-20 21 0 10 59 21 65 11 2 -3 42 -7 88 -8 61 -2 97 2 127 14 38 16 42 15 61
-1 19 -18 20 -18 33 0 13 19 16 18 68 -8 29 -15 58 -27 64 -27 7 0 17 -7 24
-15 7 -8 23 -15 36 -15 24 0 24 1 8 25 -9 14 -14 28 -11 31 11 11 77 -17 77
-33 0 -10 6 -13 16 -9 8 3 27 0 42 -8 15 -7 33 -11 41 -8 8 3 20 -3 27 -13 10
-13 21 -16 48 -11 35 7 76 -6 76 -24 0 -4 12 -22 28 -38 53 -57 72 -84 72
-103 0 -11 7 -19 16 -19 13 0 15 7 11 28 -3 15 -2 34 4 42 7 13 9 13 9 -1 0
-9 9 -24 20 -34 13 -12 17 -25 14 -44 -4 -19 0 -32 15 -45 12 -11 21 -31 21
-45 0 -15 6 -35 13 -46 12 -17 12 -25 0 -52 -7 -18 -20 -33 -28 -33 -19 0 -20
-34 -1 -49 11 -9 12 -20 5 -44 -5 -17 -5 -33 0 -36 4 -4 20 -26 35 -49 28 -45
29 -65 2 -43 -8 7 -19 10 -24 7 -13 -8 -25 -61 -27 -118 -2 -38 2 -49 16 -53
19 -6 34 -39 24 -54 -3 -6 -13 -7 -22 -4 -13 5 -15 2 -10 -11 9 -24 -10 -57
-28 -50 -9 4 -18 -1 -22 -12 -3 -11 -11 -22 -16 -25 -14 -10 1 -59 18 -59 21
0 26 -15 15 -45 -8 -20 -7 -27 5 -31 8 -4 15 -12 15 -20 0 -7 9 -18 20 -24 10
-6 17 -16 14 -24 -3 -8 9 -22 31 -34 19 -12 38 -28 41 -37 8 -19 24 -20 24 -1
0 20 16 29 41 21 16 -5 19 -12 14 -35 -5 -21 -1 -34 14 -49 12 -12 24 -21 28
-21 3 0 15 -8 26 -17 18 -17 19 -17 32 0 17 24 22 22 29 -13 3 -18 12 -30 21
-30 8 0 20 -11 27 -24 8 -20 7 -28 -5 -40 -22 -22 -27 -20 -38 14 -11 31 -36
39 -56 19 -13 -13 3 -59 21 -59 6 0 4 -4 -3 -9 -9 -6 -22 -6 -34 1 -15 8 -22
5 -34 -12 -14 -20 -22 -22 -72 -16 -49 5 -54 4 -38 -8 15 -12 16 -14 2 -20 -8
-3 -15 -12 -15 -21 0 -13 -7 -15 -34 -10 -29 6 -36 3 -59 -26 -24 -30 -30 -33
-74 -30 -26 1 -58 9 -70 16 -18 12 -23 12 -33 0 -10 -12 -9 -15 9 -15 11 0 21
-6 21 -14 0 -16 -80 -17 -92 -1 -4 6 -19 5 -41 -3 -18 -7 -42 -12 -53 -12 -11
0 -25 -5 -32 -12 -9 -9 -17 -9 -36 1 -25 14 -51 6 -76 -23 -14 -18 -50 -22
-50 -5 0 5 -5 7 -11 3 -6 -3 -9 -15 -6 -25 5 -20 -24 -44 -67 -55 -15 -3 -25
-11 -23 -17 2 -6 -9 -22 -25 -35 l-28 -24 22 -19 c20 -16 21 -18 5 -19 -11 0
-24 -14 -33 -35 -8 -19 -19 -35 -24 -35 -6 0 -10 -4 -10 -10 0 -16 -33 -44
-65 -55 -20 -7 -29 -17 -27 -28 4 -21 3 -21 -42 -2 -33 14 -38 14 -52 0 -17
-17 -34 -12 -34 11 0 14 -30 21 -30 7 -12 -234 -12 -275 4 -292 13 -15 14 -25
5 -67 -6 -27 -10 -58 -10 -69 1 -11 1 -31 2 -45 0 -14 4 -47 9 -75 20 -106 26
-194 19 -285 -6 -78 4 -145 24 -159 12 -9 17 -21 14 -37 -2 -13 -1 -60 3 -104
4 -45 4 -99 0 -122 -8 -43 11 -160 30 -183 16 -20 6 -112 -18 -167 -28 -63
-162 -195 -213 -208 -50 -14 -99 -3 -99 21 0 22 -19 25 -44 6 -20 -14 -13 -42
12 -51 9 -3 24 -10 32 -15 21 -12 105 -38 168 -50 68 -14 115 -14 146 0 19 9
32 9 56 -1 16 -7 30 -15 31 -19 0 -3 2 -27 5 -53 5 -51 0 -54 -58 -49 -23 3
-43 -35 -25 -46 14 -8 37 -45 37 -58 0 -4 -11 0 -25 9 -33 22 -35 21 -35 -15
0 -23 5 -32 20 -36 20 -5 20 -6 4 -25 -10 -10 -24 -16 -31 -13 -8 2 -12 1 -9
-4 3 -5 -1 -11 -9 -15 -17 -6 -29 9 -20 25 4 6 4 26 1 45 -6 29 -10 33 -25 24
-21 -11 -31 -4 -31 22 0 10 -5 18 -11 18 -7 0 -9 -9 -5 -24 4 -18 0 -28 -19
-40 -14 -9 -25 -25 -25 -36 0 -23 16 -35 23 -18 3 7 6 -13 6 -45 1 -43 7 -67
22 -88 12 -17 19 -38 16 -48 -2 -11 3 -23 15 -30 13 -8 17 -18 13 -31 -4 -12
-2 -20 5 -20 7 0 27 -7 46 -16 39 -19 64 -7 64 29 0 29 10 16 12 -18 2 -20 11
-32 37 -44 26 -12 35 -13 38 -3 3 6 11 12 19 12 17 0 19 -27 3 -32 -19 -6 0
-48 22 -48 14 0 21 -9 26 -30 7 -37 17 -44 43 -30 16 8 20 8 20 -4 0 -16 -35
-32 -60 -27 -8 1 -21 10 -28 19 -12 16 -14 16 -27 -1 -13 -18 -14 -17 -17 5
-3 20 -8 23 -47 22 -41 -1 -46 -3 -53 -30 -4 -17 -4 -30 2 -32 15 -5 12 -28
-5 -42 -17 -14 -20 -56 -5 -65 5 -3 14 13 20 35 11 41 40 56 40 20 0 -10 9
-24 20 -30 26 -14 27 -65 1 -79 -10 -6 -21 -8 -24 -4 -4 3 -12 1 -19 -4 -19
-15 -86 -25 -90 -14 -5 15 -308 31 -333 18 -32 -17 -118 -23 -285 -18 -92 3
-180 -11 -180 -28 0 -13 62 -18 128 -11 31 4 93 3 137 -1 44 -4 117 -8 162 -8
45 -1 85 -5 88 -11 4 -6 16 -5 33 4 22 11 51 12 147 4 235 -17 245 -20 245
-77 0 -14 9 -37 20 -51 22 -28 25 -51 10 -66 -7 -7 -6 -16 2 -27 11 -13 20
-15 52 -7 22 5 44 6 49 3 25 -15 82 -21 96 -10 11 9 15 9 18 0 3 -8 22 -13 47
-13 39 0 44 -3 59 -36 18 -37 42 -42 42 -8 1 10 4 25 9 32 11 18 36 -4 36 -31
0 -11 8 -29 17 -39 13 -14 14 -21 5 -30 -17 -17 -15 -48 2 -48 8 0 21 7 30 15
8 8 22 15 31 15 8 0 18 7 21 15 4 8 10 15 16 15 5 0 16 7 25 16 10 10 19 12
25 6 14 -14 0 -52 -18 -52 -8 0 -13 -4 -10 -9 10 -15 77 -9 72 6 -3 8 -3 34 1
58 5 38 9 45 29 45 12 0 24 -5 26 -12 7 -19 34 -17 34 2 0 10 -3 17 -7 15 -3
-2 -15 8 -27 24 -19 26 -19 31 -6 56 7 15 12 31 9 36 -3 4 0 17 7 29 10 16 10
24 0 40 -31 50 -2 83 81 94 60 7 79 -2 106 -55 24 -45 21 -92 -7 -141 -12 -20
-13 -31 -5 -39 14 -14 73 60 74 92 l0 24 9 -23 c5 -12 16 -22 23 -22 8 0 20
-13 27 -29 8 -20 20 -31 38 -33 14 -2 28 -9 30 -17 3 -10 -1 -12 -17 -8 -28 7
-27 0 8 -29 17 -14 33 -33 36 -44 4 -14 13 -17 33 -14 19 3 23 2 13 -5 -9 -6
-11 -18 -7 -34 9 -39 -10 -72 -44 -75 -16 -1 -31 2 -35 8 -9 15 -25 12 -25 -5
0 -8 4 -15 10 -15 11 0 36 -78 27 -87 -4 -3 -15 1 -25 10 -35 32 -50 14 -44
-56 1 -10 -4 -28 -12 -39 -12 -17 -12 -25 0 -55 19 -45 12 -52 -21 -22 -25 25
-33 49 -15 49 6 0 10 5 10 12 0 6 -3 8 -7 5 -3 -4 -17 0 -31 9 -13 8 -24 14
-25 12 -1 -2 -8 -14 -15 -26 -11 -20 -11 -27 2 -41 9 -10 16 -23 16 -30 0 -7
7 -19 15 -27 8 -9 15 -20 15 -25 0 -14 -42 -1 -56 17 -16 20 -34 17 -34 -6 0
-25 -15 -26 -32 -1 -10 14 -18 17 -28 10 -13 -7 -12 -9 3 -9 10 0 17 -8 17
-20 0 -13 7 -20 20 -20 22 0 27 -22 8 -37 -7 -6 -32 -8 -55 -5 -32 3 -44 9
-49 25 -6 18 -7 18 -16 4 -6 -12 0 -37 22 -86 16 -38 30 -72 30 -75 0 -17 -54
-3 -74 19 -29 32 -44 32 -52 0 -4 -15 -16 -28 -29 -31 -29 -7 -90 9 -90 24 0
7 -4 11 -10 10 -5 -2 -10 -10 -10 -18 0 -10 -12 -16 -34 -18 -25 -3 -31 -6
-21 -12 8 -5 11 -12 7 -16 -3 -4 -13 -2 -20 5 -11 9 -17 8 -27 -3 -6 -9 -9
-20 -5 -26 11 -19 -28 -24 -57 -7 -15 9 -28 12 -28 7 0 -5 -23 -12 -50 -16
-49 -6 -51 -8 -45 -34 5 -22 2 -28 -15 -33 -13 -3 -23 0 -27 9 -7 18 -23 18
-23 0 0 -8 -7 -22 -17 -31 -15 -16 -17 -15 -27 10 -11 26 -12 26 -26 10 -13
-15 -11 -19 12 -36 19 -14 24 -25 20 -44 -6 -34 -22 -42 -39 -20 -12 17 -13
16 -13 -11 0 -17 -3 -34 -7 -38 -5 -4 -8 -26 -8 -49 0 -33 -4 -42 -19 -45 -14
-3 -17 0 -13 12 4 10 1 16 -8 16 -15 0 -45 90 -45 135 0 44 -18 18 -25 -38 -8
-58 -8 -63 8 -59 5 2 14 -3 18 -10 14 -21 10 -48 -6 -48 -10 0 -15 -10 -15
-27 0 -33 -9 -47 -34 -56 -16 -6 -18 -14 -13 -51 5 -32 2 -47 -8 -56 -12 -10
-15 -9 -15 4 0 18 -8 20 -30 6 -15 -10 -17 -13 -19 -54 0 -13 -8 -26 -16 -29
-11 -5 -13 0 -8 23 6 34 -7 39 -32 14 -9 -10 -16 -30 -15 -48 4 -63 2 -69 -24
-62 -16 4 -26 1 -30 -9 -3 -8 -1 -15 4 -15 6 0 10 -11 10 -25 0 -16 -6 -25
-15 -25 -8 0 -15 6 -15 14 0 8 -14 19 -31 25 -30 10 -31 13 -26 53 12 88 -18
135 -67 103 -23 -15 -24 -15 -35 30 -12 49 -15 51 -54 33 -17 -8 -29 -24 -33
-43 -6 -30 -30 -65 -45 -65 -4 0 -5 15 -3 33 7 42 -14 72 -44 63 -20 -7 -22
-14 -22 -77 0 -53 4 -71 15 -75 17 -7 20 -30 5 -39 -17 -11 -39 14 -46 53 -4
20 -13 42 -20 49 -7 7 -10 21 -7 31 4 15 -2 21 -27 26 -20 3 -34 13 -37 25 -3
11 -11 22 -19 25 -9 3 -14 20 -14 45 0 35 -2 39 -22 33 -17 -4 -20 -2 -15 12
4 10 7 31 7 47 0 22 4 27 18 23 12 -4 13 -3 4 4 -14 9 -7 57 9 68 13 7 11 34
-2 34 -17 0 -42 -30 -61 -73 -20 -44 -23 -73 -8 -82 12 -7 4 -25 -11 -25 -5 0
-9 9 -9 20 0 11 -4 20 -10 20 -5 0 -10 -6 -10 -14 0 -8 -7 -16 -15 -20 -10 -4
-13 -14 -9 -36 4 -19 2 -30 -5 -30 -6 0 -11 -5 -11 -12 0 -6 -6 -18 -14 -27
-8 -9 -26 -29 -41 -45 -23 -25 -25 -32 -16 -59 14 -38 14 -37 -3 -37 -7 0 -25
-12 -40 -26 -20 -21 -26 -23 -26 -10 0 9 5 16 10 16 6 0 10 7 10 16 0 11 -6
14 -22 9 -17 -6 -20 -4 -14 10 3 9 9 28 12 41 3 13 13 24 20 24 8 0 17 8 21
18 3 9 23 33 44 52 33 30 39 42 42 86 4 56 20 94 31 75 14 -22 28 -11 21 18
-3 17 -2 32 4 36 6 3 11 13 11 22 0 21 -60 -24 -77 -58 -13 -24 -13 -24 -13 7
0 17 -3 34 -7 38 -4 4 -8 23 -10 43 -1 20 -7 39 -13 43 -8 5 -7 9 4 13 17 7
23 47 7 47 -18 0 -30 -28 -35 -80 -3 -31 -11 -57 -18 -59 -7 -2 -24 -17 -38
-33 -13 -15 -28 -28 -32 -28 -14 0 -8 38 7 44 11 4 15 20 15 56 0 54 -9 61
-42 30 -34 -32 -53 -26 -29 9 22 30 20 60 -4 57 -7 -1 -33 -23 -58 -49 -31
-33 -52 -47 -71 -47 -23 0 -26 3 -20 26 7 27 -13 77 -28 68 -4 -3 -8 -14 -8
-25 0 -10 -6 -19 -14 -19 -8 0 -21 -3 -30 -6 -21 -8 -20 8 2 34 37 45 52 66
52 74 0 15 -27 8 -45 -12 -10 -11 -24 -20 -31 -20 -6 0 -16 -12 -22 -27 -5
-16 -26 -46 -45 -68 l-36 -40 -1 31 c0 43 -17 57 -46 37 -13 -8 -24 -21 -24
-29 0 -18 -34 -35 -54 -28 -9 4 -22 2 -29 -3 -22 -18 -57 -22 -57 -7 0 8 8 14
18 14 9 0 23 9 30 20 11 18 10 20 -13 20 -16 0 -25 6 -25 15 0 21 -17 19 -30
-5 -13 -24 -55 -28 -46 -5 3 8 0 14 -6 12 -18 -3 -21 31 -4 48 8 8 19 15 25
15 5 0 17 16 26 35 21 43 38 57 70 57 28 1 32 10 11 27 -10 8 -16 9 -21 1 -11
-17 -54 -11 -65 9 -7 13 -7 22 0 26 5 3 10 14 10 24 0 26 -43 16 -81 -20 -17
-16 -35 -29 -40 -29 -5 0 -9 -8 -9 -19 0 -24 -25 -45 -48 -39 -12 3 -23 -2
-31 -13 -10 -16 -8 -19 11 -19 l21 0 -20 -23 c-12 -12 -23 -33 -25 -47 -3 -23
-7 -25 -44 -22 -31 3 -43 -1 -48 -13 -3 -10 -12 -15 -21 -11 -20 7 -20 -18 0
-38 8 -8 15 -17 15 -20 0 -3 -7 -6 -15 -6 -8 0 -15 4 -15 10 0 5 -16 26 -35
46 -28 28 -34 41 -29 62 3 15 7 37 10 50 3 15 0 22 -11 22 -9 0 -15 -9 -15
-25 0 -22 -4 -25 -35 -25 -28 0 -39 -6 -53 -29 -14 -23 -21 -27 -35 -20 -9 6
-17 16 -17 23 0 8 -7 16 -15 20 -8 3 -15 10 -15 16 0 14 27 13 33 -2 2 -7 8
-9 13 -5 5 4 2 12 -5 16 -7 5 -10 14 -6 20 5 9 10 9 21 0 8 -6 25 -8 39 -5 14
4 25 2 25 -4 0 -5 5 -10 10 -10 6 0 10 9 10 20 0 11 5 20 11 20 6 0 9 6 6 13
-2 6 -21 13 -43 14 -21 1 -47 3 -56 3 -9 1 -19 8 -22 16 -5 13 -10 13 -37 -1
-35 -19 -44 -15 -34 14 11 37 32 50 70 44 28 -4 35 -2 35 11 0 15 -26 22 -72
18 -10 -1 -18 3 -18 8 0 6 -10 11 -22 11 -21 1 -21 2 -3 6 11 3 25 9 31 14 6
5 18 8 25 6 8 -2 11 -2 7 0 -12 7 -10 43 2 43 6 0 10 7 10 15 0 23 -19 18 -31
-8 -15 -33 -47 -51 -64 -37 -11 9 -14 6 -17 -12 -2 -18 -9 -23 -32 -23 -24 0
-30 5 -33 27 -3 20 3 31 22 44 14 9 24 23 21 30 -3 7 1 18 9 24 18 15 8 40
-16 40 -12 0 -21 10 -25 26 -7 26 -7 26 -64 8 -29 -9 -51 18 -44 54 4 17 13
32 20 32 22 0 16 38 -6 45 -25 8 -27 49 -4 94 22 44 11 49 -28 12 -18 -17 -36
-31 -40 -31 -11 0 -10 18 2 25 18 11 10 26 -12 23 -17 -2 -23 2 -23 17 0 11
-8 23 -18 27 -10 4 -16 12 -12 18 6 10 -16 50 -46 83 -23 25 -31 57 -14 57 7
0 15 -6 18 -12 2 -7 8 -10 12 -6 13 12 -3 38 -24 38 -23 0 -38 19 -24 29 6 3
12 19 15 34 4 21 0 31 -16 42 -20 15 -20 15 6 15 35 0 56 25 40 51 -7 10 -12
30 -12 43 0 17 -8 28 -29 37 l-29 13 20 27 c25 34 16 56 -15 34 -26 -18 -46
-20 -29 -3 7 7 12 24 12 39 0 15 7 33 16 40 15 12 16 11 11 -6 -4 -11 -3 -26
2 -34 7 -11 11 -9 21 8 8 16 8 26 1 35 -6 7 -8 16 -4 20 4 4 -2 9 -14 12 -12
3 -24 17 -27 30 -8 30 -21 31 -31 2 l-8 -23 -4 23 c-6 28 -27 28 -47 0 -9 -12
-18 -19 -22 -16 -3 4 6 19 20 33 14 14 26 34 26 45 0 10 3 25 6 33 4 11 0 14
-14 11 -13 -4 -19 0 -19 13 0 10 3 20 8 23 4 3 10 31 13 63 6 52 5 57 -13 57
-10 0 -21 -9 -24 -20 -6 -24 -22 -26 -31 -5 -3 8 4 24 16 35 12 11 18 23 14
27 -4 4 -11 2 -15 -6 -6 -10 -10 -9 -15 4 -9 25 -7 65 4 65 6 0 10 10 10 23
-1 21 -1 21 -11 3 -17 -28 -29 -2 -29 62 0 53 -8 63 -30 37 -23 -28 -33 -16
-27 32 5 48 -5 83 -23 83 -6 0 -10 -7 -10 -15 0 -8 -9 -24 -20 -35 -15 -15
-18 -27 -13 -51 5 -25 3 -31 -8 -27 -8 3 -18 17 -23 31 -8 22 -6 31 13 51 12
13 24 31 25 41 1 9 9 20 16 25 12 7 11 12 -3 28 -9 10 -17 29 -17 43 -1 22 -2
23 -14 7 -20 -26 -25 -13 -19 52 4 46 2 62 -10 75 -12 12 -14 22 -7 40 6 15 5
25 -2 27 -16 6 -31 155 -36 366 -1 34 -6 62 -12 62 -5 0 -19 -19 -31 -41 -21
-41 -21 -42 -1 -88 14 -35 16 -51 8 -63 -7 -12 -7 -27 2 -51 7 -18 12 -47 12
-65 0 -17 4 -33 9 -37 5 -3 7 -29 5 -58 -5 -59 -4 -201 2 -262 3 -22 6 -58 7
-80 2 -22 6 -48 10 -57 17 -42 20 -56 22 -110 4 -78 10 -91 47 -108 24 -10 28
-15 16 -18 -10 -2 -18 -10 -18 -18 0 -10 6 -13 19 -9 24 7 38 -35 16 -48 -31
-17 -6 -147 27 -147 23 0 23 -26 1 -39 -14 -7 -15 -13 -7 -21 9 -9 8 -18 -2
-38 -19 -36 -18 -62 2 -62 27 0 54 -40 54 -80 0 -40 39 -105 40 -66 0 14 6 17
25 14 13 -3 26 0 28 6 2 6 7 8 11 5 4 -3 -7 -20 -23 -38 -30 -32 -30 -32 21
-35 20 -1 21 -13 3 -39 -7 -10 -22 -17 -32 -15 -11 2 -21 0 -21 -4 -4 -20 -1
-28 13 -28 17 0 39 -36 30 -50 -3 -5 3 -18 13 -28 10 -10 17 -23 15 -29 -2 -6
7 -19 20 -30 20 -15 23 -23 15 -37 -12 -22 7 -73 33 -87 14 -7 19 -21 19 -52
0 -24 4 -47 8 -53 5 -5 13 -21 19 -35 11 -24 10 -26 -8 -22 -12 3 -26 14 -32
24 -17 27 -22 24 -24 -20 -2 -33 0 -38 15 -34 14 3 28 -11 55 -55 20 -33 37
-68 37 -79 0 -10 7 -29 16 -41 9 -13 11 -22 4 -22 -6 0 -13 7 -16 15 -4 8 -14
15 -24 15 -15 0 -17 -5 -10 -32 11 -48 27 -85 40 -93 6 -4 15 -18 20 -31 6
-14 18 -24 29 -24 25 0 31 -19 25 -85 -3 -35 -1 -55 5 -55 6 0 20 -20 32 -44
11 -24 29 -46 39 -49 11 -3 22 -18 26 -33 3 -16 12 -33 18 -39 16 -13 27 -55
15 -55 -5 0 -9 -9 -9 -20 0 -11 7 -20 15 -20 8 0 22 -12 32 -27 10 -16 21 -31
26 -34 13 -9 29 -78 34 -144 2 -33 9 -70 15 -82 6 -12 8 -34 4 -48 -5 -19 -2
-33 9 -46 18 -19 24 -83 11 -113 -7 -14 -5 -17 10 -14 12 2 19 12 19 25 0 34
17 32 26 -2 7 -23 4 -33 -12 -48 -19 -18 -20 -20 -3 -39 18 -19 18 -19 35 3
l16 22 17 -24 c9 -13 16 -33 16 -46 0 -12 5 -25 10 -28 6 -3 10 1 10 9 0 8 4
17 10 21 12 7 40 -47 40 -79 0 -15 12 -34 31 -50 57 -48 97 -21 43 29 -32 29
-27 63 6 45 11 -6 20 -17 20 -24 0 -8 9 -16 20 -19 13 -3 19 -13 18 -29 -2
-31 35 -95 80 -138 20 -19 44 -46 53 -60 l17 -25 20 22 c22 26 37 30 28 8 -3
-10 1 -18 12 -22 30 -11 62 -46 62 -69 0 -12 4 -24 8 -26 4 -1 21 -20 36 -41
22 -28 34 -36 48 -31 24 7 78 -40 78 -68 0 -24 15 -23 26 2 9 19 11 18 54 -11
25 -17 57 -33 72 -36 15 -3 30 -14 33 -24 4 -12 11 -16 18 -12 7 4 20 6 30 5
9 -2 17 2 17 7 0 6 5 11 10 11 6 0 10 -6 10 -12 0 -20 64 -57 110 -64 23 -4
47 -13 55 -20 7 -8 21 -14 31 -14 9 0 22 -7 29 -16 6 -9 25 -17 42 -18 17 -1
39 -8 50 -17 10 -9 45 -24 78 -34 33 -10 66 -24 73 -32 18 -17 29 -16 40 4 6
9 16 14 25 10 10 -4 20 0 25 10 9 15 25 15 92 -1 14 -3 35 -1 48 6 16 8 25 9
33 1 6 -6 26 -9 45 -6 30 5 34 3 34 -16 0 -24 3 -25 48 -12 21 7 32 6 32 -1 0
-6 6 -5 15 2 15 12 51 20 98 21 11 0 17 8 17 25 0 30 26 32 33 3 5 -17 11 -20
32 -15 18 5 27 2 31 -9 4 -8 11 -15 16 -15 6 0 8 7 4 15 -8 22 4 45 24 45 13
0 17 -5 13 -20 -4 -15 0 -20 16 -20 12 0 21 -6 21 -15 0 -8 7 -15 15 -15 9 0
27 -7 40 -16 13 -9 30 -14 37 -11 8 4 6 6 -4 6 -20 1 -24 17 -6 23 7 3 24 -9
39 -25 15 -16 32 -27 37 -23 5 3 23 -1 38 -9 38 -20 64 -19 79 2 12 17 14 17
32 1 19 -17 62 -26 78 -16 6 3 32 2 60 -2 40 -6 57 -4 85 11 19 11 47 19 61
19 15 0 32 7 39 15 7 8 19 15 27 15 7 0 25 7 38 16 14 9 25 13 25 9 0 -4 6 -3
13 3 7 7 38 17 67 23 30 6 60 18 68 25 7 8 29 14 48 14 27 0 34 -4 34 -20 0
-32 24 -13 49 37 17 36 25 43 32 32 5 -8 9 -24 9 -36 0 -23 0 -23 20 -3 11 11
25 20 30 20 6 0 10 7 10 15 0 21 7 19 38 -10 28 -26 52 -33 52 -15 0 6 11 10
25 10 19 0 25 -5 25 -21 0 -12 -11 -34 -25 -51 -29 -34 -32 -56 -9 -65 10 -4
26 6 45 26 28 31 49 36 56 15 2 -6 -10 -25 -27 -42 -16 -18 -30 -39 -30 -49 0
-9 -6 -24 -14 -32 -23 -26 -55 -89 -49 -95 4 -3 14 -6 23 -6 9 0 25 -9 34 -19
16 -18 16 -21 1 -50 -8 -17 -20 -31 -25 -31 -6 0 -10 -8 -11 -17 0 -12 -2 -13
-6 -5 -3 7 2 28 11 46 20 43 20 46 -1 46 -10 0 -39 -29 -66 -66 -27 -36 -60
-69 -73 -74 -13 -5 -24 -17 -25 -27 0 -16 -1 -16 -8 2 -7 18 -9 18 -34 -9 -30
-32 -37 -86 -12 -86 8 0 15 5 15 10 0 12 84 100 95 100 7 0 3 -24 -11 -67 -5
-17 -4 -17 10 1 9 11 16 28 16 37 0 15 80 72 89 64 2 -2 -6 -19 -18 -38 -22
-36 -28 -67 -12 -67 25 0 44 16 62 52 20 39 41 46 47 16 2 -10 -7 -18 -22 -22
-23 -6 -26 -12 -26 -49 l1 -42 33 39 c27 31 34 35 39 22 4 -9 2 -27 -3 -41
l-10 -25 1711 0 1710 0 -2 274 c-1 306 5 281 -74 296 -39 8 -137 34 -245 65
-89 27 -172 44 -210 45 -19 0 -84 14 -145 31 -60 16 -163 39 -228 49 -65 11
-173 39 -240 61 -67 23 -151 45 -187 50 -36 5 -90 13 -120 18 -66 10 -239 53
-295 74 -22 8 -68 18 -102 22 l-61 7 -12 51 c-12 52 -42 144 -60 182 -19 40
-42 101 -54 140 -7 23 -38 85 -69 139 -32 55 -57 104 -57 111 0 6 -12 22 -26
36 -14 13 -37 42 -52 65 -15 22 -61 72 -101 110 -41 38 -92 87 -115 109 -22
21 -61 50 -86 62 -25 13 -60 34 -79 48 -19 14 -43 25 -54 25 -19 0 -19 5 -13
158 11 278 15 310 48 376 17 34 35 86 39 116 16 107 21 121 45 130 14 6 24 18
24 28 0 11 7 34 16 52 13 25 14 34 4 40 -9 5 -9 9 -1 14 6 4 11 21 11 37 0 16
10 49 22 72 14 28 22 62 23 99 0 31 4 60 8 64 4 4 7 17 7 28 0 12 7 29 15 40
10 13 11 24 4 37 -11 22 -1 98 16 119 6 8 15 23 18 33 5 13 18 17 50 17 78 0
134 37 199 130 91 131 88 121 107 318 5 51 13 98 19 105 12 15 39 153 46 234
3 35 13 80 22 100 12 29 17 80 20 213 2 96 6 186 9 199 4 13 5 166 4 340 -1
174 0 362 1 418 3 140 -15 199 -70 235 -87 56 -167 45 -273 -36 -52 -39 -100
-55 -112 -37 -4 7 -1 18 5 26 6 8 9 23 5 34 -3 11 1 59 8 108 30 182 40 261
34 282 -3 12 -1 24 4 27 5 3 9 23 9 44 0 21 5 42 10 45 6 3 7 17 4 30 -3 13 1
77 9 142 8 65 15 183 15 263 0 80 4 153 8 164 4 10 2 40 -5 68 -6 27 -11 77
-12 111 0 34 -4 86 -8 115 -4 29 -5 55 -2 58 11 10 -1 89 -16 106 -9 10 -12
22 -7 29 4 7 8 35 8 61 1 42 -3 51 -28 69 -24 18 -28 26 -23 58 3 22 -1 44 -8
55 -8 10 -11 31 -8 49 4 25 -1 37 -21 56 -19 18 -24 30 -19 53 3 18 0 35 -9
46 -35 41 -59 104 -52 138 4 22 2 34 -5 34 -6 0 -11 12 -11 27 0 15 -8 47 -17
72 -13 33 -14 46 -5 49 15 5 16 37 1 63 -7 14 -16 18 -30 14 -14 -5 -17 -2
-13 8 3 9 -2 29 -11 46 -12 24 -22 31 -45 31 -38 0 -38 9 1 43 17 14 28 31 24
37 -9 15 4 50 19 50 7 0 27 15 45 34 28 29 34 44 38 88 2 29 7 76 11 103 11
67 7 188 -7 213 -8 16 -7 23 6 33 13 11 17 11 20 2 6 -18 23 -16 23 3 0 8 -10
34 -22 57 -43 84 -48 95 -48 117 0 28 -16 57 -54 96 -17 17 -41 46 -54 63 -14
18 -33 31 -45 31 -14 0 -29 12 -40 32 -16 28 -20 31 -30 17 -15 -19 -24 -16
-88 27 -28 19 -57 34 -65 34 -7 0 -27 18 -45 39 -17 22 -45 45 -63 52 -31 13
-57 33 -101 77 -12 12 -30 22 -39 22 -9 0 -16 4 -16 8 0 5 -18 17 -40 27 -22
10 -47 26 -57 37 -23 26 -73 56 -103 62 -14 2 -50 15 -80 29 -30 13 -60 22
-67 20 -6 -2 -38 10 -70 26 -32 17 -70 31 -85 31 -15 0 -56 18 -91 40 -40 25
-70 38 -81 34 -9 -3 -28 1 -41 10 -14 10 -62 21 -107 26 -77 9 -181 48 -200
74 -4 6 -16 6 -30 -1 -20 -9 -29 -7 -49 8 -13 10 -40 19 -61 19 -49 0 -150 27
-159 42 -4 6 -29 12 -56 13 -26 1 -58 7 -70 13 -12 7 -50 12 -85 12 -35 1 -81
8 -103 16 -55 20 -169 44 -210 44 -18 0 -35 4 -37 8 -1 4 -11 0 -21 -10z
m-462 -88 c3 -5 -1 -10 -10 -10 -9 0 -13 5 -10 10 3 6 8 10 10 10 2 0 7 -4 10
-10z m1345 -110 c0 -11 -4 -20 -10 -20 -5 0 -14 9 -20 20 -9 17 -8 20 10 20
13 0 20 -7 20 -20z m-392 -112 c14 -14 16 -28 2 -28 -5 0 -14 9 -20 20 -12 22
-1 27 18 8z m-728 -234 c0 -8 -4 -12 -10 -9 -5 3 -10 10 -10 16 0 5 5 9 10 9
6 0 10 -7 10 -16z m-113 -40 c2 -6 -10 -8 -32 -6 -19 2 -35 8 -35 14 0 13 63
6 67 -8z m1658 -104 c3 -5 1 -10 -4 -10 -6 0 -11 5 -11 10 0 6 2 10 4 10 3 0
8 -4 11 -10z m-1658 -6 c-3 -3 -12 -4 -19 -1 -8 3 -5 6 6 6 11 1 17 -2 13 -5z
m-459 -22 c-4 -21 -58 -30 -58 -9 0 19 5 22 35 25 20 1 26 -2 23 -16z m798 -7
c16 -12 17 -14 2 -15 -23 0 -48 11 -48 21 0 14 24 11 46 -6z m839 -5 c10 -11
14 -20 8 -20 -5 0 -18 9 -28 20 -10 11 -14 20 -8 20 5 0 18 -9 28 -20z m-775
-36 c0 -2 -7 -4 -15 -4 -8 0 -15 4 -15 10 0 5 7 7 15 4 8 -4 15 -8 15 -10z
m-780 -4 c0 -5 -7 -10 -15 -10 -8 0 -15 5 -15 10 0 6 7 10 15 10 8 0 15 -4 15
-10z m43 -17 c-7 -2 -19 -2 -25 0 -7 3 -2 5 12 5 14 0 19 -2 13 -5z m1007 -18
c0 -8 -2 -15 -4 -15 -2 0 -6 7 -10 15 -3 8 -1 15 4 15 6 0 10 -7 10 -15z m560
-1 c0 -8 -4 -12 -10 -9 -5 3 -10 10 -10 16 0 5 5 9 10 9 6 0 10 -7 10 -16z
m-1345 -74 c3 -5 1 -10 -4 -10 -6 0 -11 5 -11 10 0 6 2 10 4 10 3 0 8 -4 11
-10z m2 -136 c-3 -3 -12 -4 -19 -1 -8 3 -5 6 6 6 11 1 17 -2 13 -5z m2937 -30
c4 -9 4 -19 2 -21 -8 -8 -26 8 -26 23 0 19 16 18 24 -2z m-4874 -24 c0 -5 -4
-10 -10 -10 -5 0 -10 5 -10 10 0 6 5 10 10 10 6 0 10 -4 10 -10z m950 -93 c0
-9 -12 -11 -40 -9 -22 2 -40 8 -40 13 0 5 18 9 40 9 26 0 40 -5 40 -13z m-903
-43 c-3 -3 -12 -4 -19 -1 -8 3 -5 6 6 6 11 1 17 -2 13 -5z m0 -196 c-3 -7 -5
-2 -5 12 0 14 2 19 5 13 2 -7 2 -19 0 -25z m1311 -103 c49 -3 63 -12 42 -25
-19 -12 -90 -13 -90 -1 0 5 -9 11 -20 14 -11 3 -20 11 -20 17 0 8 7 10 23 5
12 -4 41 -9 65 -10z m812 -431 c0 -18 -37 -26 -80 -16 l-35 8 28 15 c33 18 87
13 87 -7z m-403 10 c-3 -3 -12 -4 -19 -1 -8 3 -5 6 6 6 11 1 17 -2 13 -5z
m-1623 -689 c-4 -8 -10 -12 -15 -9 -11 6 -2 24 11 24 5 0 7 -7 4 -15z m3566
-15 c13 -8 13 -10 -2 -10 -9 0 -20 5 -23 10 -8 13 5 13 25 0z m-3590 -225 c0
-8 -4 -15 -10 -15 -5 0 -10 7 -10 15 0 8 5 15 10 15 6 0 10 -7 10 -15z m3566
-143 c-4 -3 -11 0 -16 8 -15 24 -11 33 6 15 9 -9 13 -19 10 -23z m44 -18 c0
-8 -5 -12 -10 -9 -6 4 -8 11 -5 16 9 14 15 11 15 -7z m30 -56 c0 -5 -7 -3 -15
6 -8 8 -15 18 -15 22 0 3 7 1 15 -6 8 -7 15 -17 15 -22z m-3686 -70 c-33 -40
-61 -61 -76 -56 -18 6 67 80 100 87 2 1 -9 -14 -24 -31z m-164 -122 c0 -14
-29 -31 -38 -22 -2 3 -2 12 1 21 8 19 37 20 37 1z m-130 -15 c0 -5 -7 -14 -15
-21 -12 -10 -15 -10 -15 2 0 8 3 18 7 21 9 10 23 9 23 -2z m-55 -91 c3 -5 1
-10 -4 -10 -6 0 -11 5 -11 10 0 6 2 10 4 10 3 0 8 -4 11 -10z m-8 -252 c-3 -8
-6 -5 -6 6 -1 11 2 17 5 13 3 -3 4 -12 1 -19z m3458 -8 c-3 -5 -10 -10 -16
-10 -5 0 -9 5 -9 10 0 6 7 10 16 10 8 0 12 -4 9 -10z m-3455 -100 c0 -5 -5
-10 -11 -10 -5 0 -7 5 -4 10 3 6 8 10 11 10 2 0 4 -4 4 -10z m4261 -6 c19 -10
40 -22 48 -28 7 -6 26 -9 41 -8 33 4 46 -11 25 -28 -13 -11 -12 -15 7 -35 13
-12 35 -42 50 -66 22 -36 25 -52 21 -91 -4 -37 -10 -47 -27 -51 -37 -7 -88 -1
-96 13 -4 7 -14 10 -21 8 -8 -3 -28 1 -46 9 -21 8 -76 13 -160 13 -132 0 -189
-12 -120 -25 43 -8 48 -27 12 -43 -35 -16 -52 -15 -59 3 -5 13 -10 14 -27 5
-11 -7 -23 -9 -26 -6 -3 3 -15 0 -27 -6 -11 -6 -34 -11 -50 -10 -15 2 -33 -2
-40 -6 -6 -5 -18 -9 -27 -9 -25 0 -143 -25 -154 -33 -5 -4 -22 -8 -37 -8 -15
0 -47 -11 -73 -25 -53 -30 -115 -45 -115 -28 0 6 15 18 33 27 17 9 39 22 47
29 8 7 38 20 65 31 28 10 59 23 70 30 11 7 47 20 80 29 91 26 93 39 5 32 -66
-5 -181 -41 -215 -67 -5 -4 -34 -11 -63 -15 -49 -6 -54 -5 -59 14 -3 11 -8 19
-12 17 -3 -2 -19 6 -35 19 -28 23 -28 23 -7 34 11 7 21 19 21 28 0 23 74 93
98 93 12 0 24 5 27 10 3 6 17 10 29 10 13 0 37 7 52 15 16 8 38 15 50 15 12 0
48 13 80 30 49 24 84 32 204 46 80 9 179 18 220 21 41 2 91 7 110 12 52 13 64
13 101 -5z m-981 -119 c0 -8 -7 -15 -15 -15 -16 0 -20 12 -8 23 11 12 23 8 23
-8z m-3280 -94 c0 -6 -4 -13 -10 -16 -5 -3 -10 1 -10 9 0 9 5 16 10 16 6 0 10
-4 10 -9z m-123 -73 c-3 -8 -6 -5 -6 6 -1 11 2 17 5 13 3 -3 4 -12 1 -19z
m3981 -141 c14 -11 16 -46 3 -65 -4 -7 -25 -17 -45 -22 -31 -7 -38 -5 -51 13
-20 29 -19 74 2 86 19 10 71 4 91 -12z m-170 -22 c-3 -14 -1 -47 4 -73 5 -26
10 -55 12 -65 3 -25 26 -38 46 -27 32 17 74 -2 67 -30 -3 -12 1 -19 12 -19 9
0 54 -3 101 -7 99 -7 193 7 232 36 15 11 29 16 32 11 10 -15 -38 -56 -67 -57
-16 -1 -37 -10 -47 -19 -14 -12 -28 -16 -50 -12 -22 5 -30 3 -30 -7 0 -8 -2
-20 -5 -28 -3 -7 0 -20 5 -28 8 -13 11 -13 19 -1 6 9 19 12 37 8 15 -3 38 -1
50 4 18 6 24 4 29 -12 4 -11 18 -27 31 -36 21 -13 22 -17 9 -27 -9 -6 -17 -25
-18 -41 -2 -27 1 -30 23 -27 15 2 36 -6 49 -18 17 -14 38 -20 70 -20 54 0 106
-28 124 -67 9 -21 9 -27 -1 -31 -15 -5 -16 -32 -1 -32 5 0 7 -5 3 -11 -3 -6
-19 -9 -33 -7 -15 2 -32 -1 -38 -8 -16 -16 0 -36 22 -28 16 6 17 3 12 -23 -4
-22 -2 -33 8 -37 11 -4 13 -14 8 -37 -6 -32 -6 -32 26 -26 25 5 32 4 28 -6 -4
-10 4 -13 31 -12 20 2 38 8 40 14 2 6 16 11 30 11 26 1 26 1 7 16 -17 13 -18
16 -5 24 8 6 21 8 28 5 7 -2 21 4 32 15 24 24 45 26 36 4 -4 -9 4 -28 19 -46
14 -16 25 -39 25 -51 0 -12 4 -28 9 -36 8 -12 12 -12 25 -2 9 8 16 9 16 3 0
-6 -6 -12 -12 -15 -10 -3 -10 -7 1 -20 12 -15 11 -17 -3 -17 -9 0 -16 -7 -16
-15 0 -25 -1 -30 -12 -43 -21 -25 -8 -259 16 -274 6 -4 21 -8 33 -8 18 0 23
-8 29 -47 4 -27 12 -51 17 -55 8 -4 7 -15 -1 -33 -7 -14 -12 -57 -12 -95 0
-51 -4 -70 -13 -70 -21 0 -37 22 -37 52 0 36 -26 38 -33 2 -3 -16 0 -28 10
-31 11 -4 13 -19 7 -74 -5 -50 -3 -69 5 -69 7 0 9 -4 6 -10 -3 -5 -2 -10 2
-10 5 0 14 14 20 30 6 17 16 30 22 30 16 0 13 -30 -4 -36 -8 -3 -19 -22 -25
-42 -13 -48 -13 -55 3 -46 6 5 5 -3 -5 -16 -10 -16 -24 -24 -37 -23 -13 2 -21
-3 -21 -12 0 -8 -9 -20 -20 -27 -11 -7 -20 -23 -20 -35 0 -13 -4 -23 -9 -23
-16 0 -23 40 -11 55 17 20 4 35 -30 35 -31 0 -46 25 -41 68 4 32 -16 27 -36
-10 l-18 -33 -5 50 c-5 53 -17 59 -51 29 -21 -19 -32 -18 -27 4 3 10 -1 23 -9
30 -7 7 -13 22 -13 32 0 26 -20 26 -27 0 -7 -25 -20 -26 -27 -2 -5 15 1 -41 8
-71 1 -7 -2 -2 -8 11 -5 12 -16 22 -24 22 -8 0 -23 11 -34 25 -25 32 -44 32
-51 0 -4 -22 -1 -25 17 -23 30 4 33 -35 5 -63 -21 -21 -21 -23 -4 -35 25 -18
11 -30 -22 -18 -38 13 -52 40 -29 57 16 11 16 18 6 55 -6 23 -8 46 -5 51 3 5
2 17 -2 27 -6 16 -7 16 -14 -2 -7 -18 -8 -18 -8 -1 -2 39 -26 9 -25 -31 0 -31
-4 -42 -18 -45 -10 -3 -15 -1 -12 4 3 5 -4 22 -15 38 -12 16 -21 35 -21 41 0
7 -12 24 -27 37 -24 23 -27 24 -36 8 -7 -13 -5 -20 7 -27 9 -5 16 -16 16 -23
0 -17 -16 -20 -25 -5 -11 18 -25 11 -25 -13 0 -13 -4 -27 -10 -33 -16 -16 20
-98 48 -112 33 -15 44 -7 30 23 -15 34 -5 41 25 18 28 -20 41 -69 20 -77 -7
-3 -13 -1 -13 4 0 16 -20 11 -27 -6 -3 -8 4 -28 16 -44 24 -33 28 -62 7 -54
-20 8 -29 -26 -11 -40 9 -6 17 -23 19 -38 1 -15 8 -34 15 -42 7 -9 14 -33 15
-55 1 -22 10 -49 20 -60 13 -15 18 -35 17 -71 0 -39 3 -50 15 -50 12 0 14 -9
10 -45 -4 -28 -2 -45 5 -45 6 0 8 -9 4 -19 -3 -11 -2 -22 3 -25 13 -8 25 -73
16 -87 -4 -6 -12 -2 -21 10 -8 12 -20 21 -28 21 -8 0 -22 13 -32 30 -16 28
-26 34 -46 31 -4 -1 -17 3 -28 9 -15 9 -21 7 -25 -5 -5 -12 -10 -13 -20 -4
-11 9 -11 13 1 26 8 8 15 20 15 26 0 8 -3 7 -9 -2 -7 -11 -16 -8 -45 15 -20
16 -36 32 -36 37 0 4 -10 7 -22 7 -12 0 -30 7 -40 16 -14 14 -20 14 -33 4 -12
-10 -15 -10 -15 3 0 8 -13 17 -30 21 -16 3 -30 12 -30 20 0 20 -32 45 -37 29
-7 -21 -22 -15 -16 7 4 13 -1 22 -13 26 -11 3 -33 13 -50 21 -17 9 -43 14 -57
11 -27 -5 -42 5 -49 31 -4 19 -43 61 -57 61 -6 0 -11 -7 -11 -15 0 -8 -4 -15
-8 -15 -14 0 -32 23 -32 42 0 10 5 18 12 18 9 0 9 3 0 12 -7 7 -12 23 -12 35
0 13 -12 35 -26 48 -25 23 -26 29 -18 67 8 39 12 43 49 50 40 9 72 28 45 28
-7 0 7 13 31 30 24 16 49 30 55 30 6 0 17 6 24 14 6 8 18 12 26 9 9 -3 14 2
14 14 0 24 75 103 99 103 10 0 21 3 25 7 3 4 14 8 23 9 9 2 20 10 25 18 11 20
28 21 28 2 0 -24 41 -31 57 -10 18 24 16 44 -3 44 -14 0 -14 2 0 15 26 26 30
55 9 70 -10 8 -24 12 -32 10 -10 -4 -12 5 -7 42 3 28 2 40 -2 29 -8 -18 -9
-18 -15 -3 -7 20 2 49 13 42 11 -7 21 22 14 39 -3 8 -18 16 -32 18 -22 2 -30
11 -42 48 -8 25 -19 48 -25 52 -7 5 -7 8 0 9 6 0 -5 6 -24 13 -37 13 -65 55
-81 124 -8 32 -16 42 -30 42 -11 0 -20 -5 -20 -12 0 -9 -3 -9 -12 0 -8 8 -8
15 0 25 14 17 4 57 -19 80 -11 10 -19 19 -19 20 -1 1 -3 20 -6 42 -3 22 -8 47
-11 55 -3 8 -5 19 -4 23 1 5 -7 23 -19 41 -20 34 -18 49 6 39 22 -8 17 11 -11
43 -14 16 -25 35 -25 42 0 22 -2 27 -12 40 -16 19 -1 27 27 14 15 -7 25 -8 25
-2 0 6 -6 10 -12 11 -10 0 -10 2 0 6 9 3 10 9 2 17 -7 9 -7 23 1 45 7 19 15
28 18 22 9 -14 54 45 48 62 -2 7 -12 12 -22 12 -12 0 -21 9 -25 25 -4 19 -13
26 -35 28 -38 5 -65 42 -31 42 8 0 16 10 18 23 2 16 10 22 28 23 51 2 52 3 36
19 -23 24 -116 32 -127 12 -11 -18 -45 -12 -54 11 -7 20 6 32 39 36 14 1 36
12 49 23 28 26 165 93 190 93 15 0 18 -5 15 -25z m587 -185 c-3 -5 -13 -10
-21 -10 -8 0 -14 5 -14 10 0 6 9 10 21 10 11 0 17 -4 14 -10z m-780 -10 c-3
-5 -10 -10 -16 -10 -5 0 -9 5 -9 10 0 6 7 10 16 10 8 0 12 -4 9 -10z m-97 -28
c2 -7 -6 -12 -17 -12 -21 0 -27 11 -14 24 9 9 26 2 31 -12z m72 -12 c0 -5 -2
-10 -4 -10 -3 0 -8 5 -11 10 -3 6 -1 10 4 10 6 0 11 -4 11 -10z m-3560 -71
c-7 -11 -14 -18 -17 -15 -8 8 5 36 17 36 7 0 7 -6 0 -21z m3630 -29 c0 -11 -7
-20 -15 -20 -8 0 -15 9 -15 20 0 11 7 20 15 20 8 0 15 -9 15 -20z m703 -7 c9
-9 -12 -33 -29 -33 -12 0 -12 4 -2 20 14 21 21 24 31 13z m234 -235 c-3 -8 -6
-5 -6 6 -1 11 2 17 5 13 3 -3 4 -12 1 -19z m830 -90 c-3 -7 -5 -2 -5 12 0 14
2 19 5 13 2 -7 2 -19 0 -25z m-837 -94 c0 -8 -7 -14 -15 -14 -15 0 -21 21 -9
33 10 9 24 -2 24 -19z m290 -339 c0 -8 -7 -15 -15 -15 -9 0 -12 6 -9 15 4 8
10 15 15 15 5 0 9 -7 9 -15z m18 -80 c-3 -3 -9 2 -12 12 -6 14 -5 15 5 6 7 -7
10 -15 7 -18z m-1323 -345 c-9 -10 -15 -21 -14 -26 5 -27 -2 -34 -26 -28 -18
4 -25 2 -25 -9 0 -8 -7 -20 -15 -27 -12 -10 -20 -9 -40 4 -32 21 -31 28 3 63
16 15 31 36 35 46 4 10 10 16 14 14 5 -3 17 -1 28 3 13 5 26 2 38 -8 16 -14
16 -17 2 -32z m615 -110 c0 -5 -4 -10 -10 -10 -5 0 -10 5 -10 10 0 6 5 10 10
10 6 0 10 -4 10 -10z m-55 -30 c3 -5 1 -10 -4 -10 -6 0 -11 5 -11 10 0 6 2 10
4 10 3 0 8 -4 11 -10z m405 -121 c0 -5 -4 -9 -10 -9 -5 0 -10 7 -10 16 0 8 5
12 10 9 6 -3 10 -10 10 -16z m-135 -117 c17 -12 39 -61 31 -69 -8 -8 -55 46
-56 65 0 13 10 15 25 4z m-1193 -56 c-2 -16 2 -32 7 -36 16 -9 -25 -50 -49
-50 -16 0 -20 7 -20 35 0 43 27 87 49 83 11 -3 15 -12 13 -32z m1638 24 c0 -5
-5 -10 -11 -10 -5 0 -7 5 -4 10 3 6 8 10 11 10 2 0 4 -4 4 -10z m-560 -61 c0
-10 -4 -19 -9 -19 -12 0 -23 29 -15 41 8 14 24 0 24 -22z m-1050 -80 c0 -11
-4 -17 -10 -14 -5 3 -10 15 -10 26 0 11 5 17 10 14 6 -3 10 -15 10 -26z m385
1 c3 -5 1 -10 -4 -10 -6 0 -11 5 -11 10 0 6 2 10 4 10 3 0 8 -4 11 -10z
m-3385 -85 c0 -8 -4 -15 -10 -15 -5 0 -10 7 -10 15 0 8 5 15 10 15 6 0 10 -7
10 -15z m4097 9 c-3 -3 -12 -4 -19 -1 -8 3 -5 6 6 6 11 1 17 -2 13 -5z m-4117
-168 c0 -26 -15 -43 -24 -28 -7 12 4 52 15 52 5 0 9 -11 9 -24z m3854 -1 c3
-8 1 -15 -4 -15 -6 0 -10 7 -10 15 0 8 2 15 4 15 2 0 6 -7 10 -15z m-3834 -67
c0 -13 -12 -31 -25 -41 -20 -14 -25 -15 -25 -4 0 8 7 18 16 21 10 4 13 13 9
26 -5 14 -2 20 9 20 10 0 16 -9 16 -22z m3274 -10 c-2 -4 4 -11 13 -17 16 -8
15 -11 -11 -21 -23 -8 -32 -8 -43 3 -20 19 -6 47 22 45 13 -1 22 -6 19 -10z
m116 -44 c0 -28 -17 -28 -34 -1 -8 13 -7 20 4 27 20 12 30 3 30 -26z m580 0
c0 -9 -5 -14 -12 -12 -18 6 -21 28 -4 28 9 0 16 -7 16 -16z m-3947 0 c7 -8
-11 -46 -27 -56 -38 -25 -51 19 -13 45 25 18 31 20 40 11z m3022 -4 c3 -5 1
-10 -4 -10 -6 0 -11 5 -11 10 0 6 2 10 4 10 3 0 8 -4 11 -10z m-2967 -65 c-9
-9 -30 14 -23 25 6 9 10 8 17 -4 6 -10 8 -19 6 -21z m-58 -5 c0 -5 -2 -10 -4
-10 -3 0 -8 5 -11 10 -3 6 -1 10 4 10 6 0 11 -4 11 -10z m3131 -103 c-13 -13
-26 -3 -16 12 3 6 11 8 17 5 6 -4 6 -10 -1 -17z m15 -104 c-7 -7 -26 7 -26 19
0 6 6 6 15 -2 9 -7 13 -15 11 -17z m-72 -35 c9 -34 8 -38 -9 -38 -10 0 -15 10
-15 30 0 35 15 40 24 8z m-2980 -69 c-3 -5 -10 -7 -15 -3 -5 3 -7 10 -3 15 3
5 10 7 15 3 5 -3 7 -10 3 -15z m66 -175 c0 -8 -4 -12 -10 -9 -5 3 -10 13 -10
21 0 8 5 12 10 9 6 -3 10 -13 10 -21z m190 -204 c0 -5 -2 -10 -4 -10 -3 0 -8
5 -11 10 -3 6 -1 10 4 10 6 0 11 -4 11 -10z m3728 -87 c-5 -25 -28 -28 -28 -4
0 12 6 21 16 21 9 0 14 -7 12 -17z m-3607 -145 c-1 -5 -1 -19 -1 -33 0 -36
-27 -32 -32 5 -3 17 -2 32 1 35 7 8 32 2 32 -7z m3479 -63 c0 -8 -4 -15 -10
-15 -5 0 -10 7 -10 15 0 8 5 15 10 15 6 0 10 -7 10 -15z m-115 -95 c3 -5 -1
-10 -9 -10 -9 0 -16 5 -16 10 0 6 4 10 9 10 6 0 13 -4 16 -10z m-3275 -30 c0
-5 -4 -10 -10 -10 -5 0 -10 5 -10 10 0 6 5 10 10 10 6 0 10 -4 10 -10z m590
-84 c0 -12 -40 -46 -55 -46 -11 0 -4 24 12 42 19 21 43 24 43 4z m-590 -6 c0
-5 -5 -10 -11 -10 -5 0 -7 5 -4 10 3 6 8 10 11 10 2 0 4 -4 4 -10z m3120 0 c0
-5 -4 -10 -10 -10 -5 0 -10 5 -10 10 0 6 5 10 10 10 6 0 10 -4 10 -10z m-240
-41 c0 -5 -4 -9 -10 -9 -5 0 -10 7 -10 16 0 8 5 12 10 9 6 -3 10 -10 10 -16z
m-128 -58 c16 -30 14 -41 -8 -41 -6 0 -14 16 -16 35 -5 43 2 44 24 6z m-2192
-33 c0 -5 -7 -8 -15 -8 -15 0 -20 21 -8 33 7 7 23 -11 23 -25z m2114 7 c2 -7
2 -23 -1 -35 -6 -21 -6 -21 -28 6 -16 21 -19 31 -11 40 13 13 32 8 40 -11z
m-2146 -73 c4 -23 -13 -52 -29 -52 -5 0 -9 18 -9 41 0 33 3 40 18 37 9 -2 18
-14 20 -26z m2102 8 c0 -11 -4 -20 -10 -20 -5 0 -10 9 -10 20 0 11 5 20 10 20
6 0 10 -9 10 -20z m-2186 -26 c8 -20 8 -19 -23 -29 -20 -6 -23 -4 -18 10 4 9
7 21 7 26 0 16 28 10 34 -7z m594 4 c-7 -19 -38 -22 -38 -4 0 10 9 16 21 16
12 0 19 -5 17 -12z m139 -11 c-2 -6 5 -19 16 -28 15 -11 18 -21 12 -35 -4 -10
-9 -27 -10 -37 -1 -9 -14 -31 -30 -47 -30 -32 -27 -52 5 -32 30 18 40 15 40
-14 0 -20 4 -25 16 -20 8 3 13 2 10 -3 -3 -5 1 -12 10 -15 13 -5 14 -9 4 -21
-7 -8 -10 -21 -7 -29 3 -8 1 -16 -6 -19 -13 -4 -40 40 -32 53 10 17 -18 23
-30 6 -16 -21 -45 -11 -45 15 0 11 -7 22 -15 25 -22 9 -18 51 6 75 16 16 18
23 8 35 -15 18 -24 18 -43 -1 -13 -13 -15 -11 -21 15 -7 33 20 80 42 73 7 -3
22 2 34 11 23 16 43 12 36 -7z m113 2 c0 -5 -4 -9 -10 -9 -5 0 -10 7 -10 16 0
8 5 12 10 9 6 -3 10 -10 10 -16z m-430 -9 c0 -5 -9 -10 -21 -10 -11 0 -17 5
-14 10 3 6 13 10 21 10 8 0 14 -4 14 -10z m-50 -15 c0 -8 -7 -15 -15 -15 -16
0 -20 12 -8 23 11 12 23 8 23 -8z m70 -24 c0 -23 -16 -36 -25 -21 -9 14 1 40
15 40 5 0 10 -9 10 -19z m-543 -13 c-3 -8 -6 -5 -6 6 -1 11 2 17 5 13 3 -3 4
-12 1 -19z m1054 -28 c12 -7 19 -21 19 -38 0 -16 5 -33 11 -39 11 -11 5 -33
-9 -33 -12 0 -32 52 -32 81 0 15 -6 30 -12 32 -7 3 -9 6 -5 6 5 1 17 -4 28 -9z
m-521 -20 c0 -13 -5 -18 -15 -14 -16 7 -19 17 -8 27 12 13 23 7 23 -13z m-210
-5 c0 -12 -36 -45 -49 -45 -10 0 -6 8 10 24 23 23 39 32 39 21z m673 -30 c-7
-21 -13 -19 -13 6 0 11 4 18 10 14 5 -3 7 -12 3 -20z m-523 -14 c0 -6 -4 -13
-10 -16 -5 -3 -10 1 -10 9 0 9 5 16 10 16 6 0 10 -4 10 -9z m1610 -55 c0 -18
-15 -36 -31 -36 -12 0 -19 7 -19 20 0 15 7 20 25 20 14 0 25 -2 25 -4z m-1518
-28 c-7 -7 -12 -8 -12 -2 0 14 12 26 19 19 2 -3 -1 -11 -7 -17z m152 0 c-7
-22 -21 -38 -36 -38 -12 0 -10 9 10 35 22 31 35 32 26 3z m266 -27 c15 -28 12
-33 -10 -19 -21 13 -27 38 -10 38 5 0 14 -9 20 -19z m-230 -28 c0 -5 14 -9 31
-10 18 -1 33 -4 36 -6 2 -2 -13 -21 -32 -42 -40 -42 -51 -42 -35 1 9 23 8 31
-4 40 -18 13 -21 24 -6 24 6 0 10 -3 10 -7z m397 -43 c0 -41 -4 -50 -18 -50
-12 0 -16 6 -12 19 3 10 0 22 -6 25 -15 10 -14 43 2 49 28 12 34 5 34 -43z
m-277 27 c0 -8 -9 -22 -20 -32 -11 -10 -20 -26 -20 -35 0 -19 -47 -67 -56 -57
-3 3 3 15 14 27 11 12 25 41 32 66 9 32 18 44 31 44 11 0 19 -6 19 -13z m360
-6 c0 -6 -4 -13 -10 -16 -5 -3 -10 1 -10 9 0 9 5 16 10 16 6 0 10 -4 10 -9z
m390 -12 c0 -5 -4 -9 -10 -9 -5 0 -10 7 -10 16 0 8 5 12 10 9 6 -3 10 -10 10
-16z m74 -24 c-31 -23 -38 -17 -13 10 13 13 26 20 28 14 1 -6 -5 -17 -15 -24z
m-122 -27 c-18 -18 -33 1 -21 24 11 20 12 20 21 4 7 -12 7 -21 0 -28z m-208 5
c-13 -53 -27 -58 -42 -14 -12 34 -8 41 25 41 20 0 23 -3 17 -27z m616 -14 c12
-16 20 -33 17 -35 -8 -8 -47 34 -47 51 0 22 6 19 30 -16z m-270 -45 c0 -31
-23 -28 -28 4 -2 15 2 22 12 22 11 0 16 -9 16 -26z m-110 -19 c0 -8 -4 -17
-10 -20 -6 -4 -10 5 -10 20 0 15 4 24 10 20 6 -3 10 -12 10 -20z m-752 -20
c-11 -25 -32 -33 -43 -15 -7 12 33 53 45 45 6 -3 5 -16 -2 -30z m-1048 -91 c0
-16 -16 -19 -25 -4 -8 13 4 32 16 25 5 -4 9 -13 9 -21z m1930 16 c0 -5 -4 -10
-9 -10 -6 0 -13 5 -16 10 -3 6 1 10 9 10 9 0 16 -4 16 -10z m-1052 -771 c-8
-6 -18 -2 -25 8 -21 27 -15 35 13 17 19 -13 22 -19 12 -25z m1066 -145 c-10
-39 -41 -67 -68 -60 -24 6 -32 36 -9 36 7 0 18 8 24 19 7 11 19 16 31 13 10
-2 18 1 18 7 0 6 2 11 5 11 3 0 2 -12 -1 -26z m1498 -204 c-20 -19 -23 -19
-29 -4 -8 21 26 49 41 34 7 -7 3 -17 -12 -30z m3181 13 c-7 -2 -19 -2 -25 0
-7 3 -2 5 12 5 14 0 19 -2 13 -5z m-176 -79 c-3 -3 -12 -4 -19 -1 -8 3 -5 6 6
6 11 1 17 -2 13 -5z m-297 -74 c0 -5 -7 -10 -15 -10 -8 0 -15 5 -15 10 0 6 7
10 15 10 8 0 15 -4 15 -10z m-176 -75 c4 -12 -5 -15 -52 -13 -50 1 -52 2 -14
5 23 2 42 8 42 14 0 15 17 10 24 -6z m-227 -91 c-3 -3 -12 -4 -19 -1 -8 3 -5
6 6 6 11 1 17 -2 13 -5z m-312 -74 c-3 -5 -14 -10 -23 -9 -14 0 -13 2 3 9 27
11 27 11 20 0z"/>
<path d="M6728 5818 c8 -8 17 -8 34 0 22 10 21 11 -11 11 -27 1 -32 -2 -23
-11z"/>
<path d="M7031 5721 c-7 -5 -11 -14 -7 -19 9 -15 36 -4 36 14 0 16 -9 18 -29
5z"/>
<path d="M7681 5114 c0 -11 3 -14 6 -6 3 7 2 16 -1 19 -3 4 -6 -2 -5 -13z"/>
<path d="M7830 4714 c0 -14 3 -14 15 -4 8 7 15 14 15 16 0 2 -7 4 -15 4 -8 0
-15 -7 -15 -16z"/>
<path d="M7331 4464 c0 -11 3 -14 6 -6 3 7 2 16 -1 19 -3 4 -6 -2 -5 -13z"/>
<path d="M7260 4455 c0 -9 5 -15 11 -13 6 2 11 8 11 13 0 5 -5 11 -11 13 -6 2
-11 -4 -11 -13z"/>
<path d="M7410 4445 c-10 -27 -4 -55 12 -55 6 0 8 7 5 15 -4 8 -2 17 3 20 13
8 13 45 0 45 -6 0 -15 -11 -20 -25z"/>
<path d="M7050 4440 c0 -5 5 -10 10 -10 6 0 10 5 10 10 0 6 -4 10 -10 10 -5 0
-10 -4 -10 -10z"/>
<path d="M7300 4429 c0 -5 5 -7 10 -4 6 3 10 8 10 11 0 2 -4 4 -10 4 -5 0 -10
-5 -10 -11z"/>
<path d="M7530 4386 c0 -9 5 -16 10 -16 6 0 10 4 10 9 0 6 -4 13 -10 16 -5 3
-10 -1 -10 -9z"/>
<path d="M7756 4235 c-4 -13 -2 -14 14 -5 23 13 26 20 6 20 -8 0 -16 -7 -20
-15z"/>
<path d="M4921 2020 c-23 -20 -23 -20 -2 -20 12 0 21 6 21 14 0 8 6 17 13 19
6 3 8 6 2 6 -5 0 -21 -9 -34 -19z"/>
<path d="M7292 9819 c2 -7 10 -15 17 -17 8 -3 12 1 9 9 -2 7 -10 15 -17 17 -8
3 -12 -1 -9 -9z"/>
<path d="M3430 9350 c0 -5 7 -10 15 -10 8 0 15 5 15 10 0 6 -7 10 -15 10 -8 0
-15 -4 -15 -10z"/>
<path d="M6565 8300 c-3 -5 3 -10 15 -10 12 0 18 5 15 10 -3 6 -10 10 -15 10
-5 0 -12 -4 -15 -10z"/>
<path d="M2702 7778 c-16 -16 -15 -28 2 -28 19 0 27 13 17 28 -5 9 -10 9 -19
0z"/>
<path d="M6910 7420 c0 -5 5 -10 10 -10 6 0 10 5 10 10 0 6 -4 10 -10 10 -5 0
-10 -4 -10 -10z"/>
<path d="M7237 6924 c-9 -9 4 -35 14 -28 5 3 9 12 9 20 0 14 -12 19 -23 8z"/>
<path d="M3386 6875 c-25 -19 -8 -19 35 0 31 13 32 14 9 14 -14 0 -34 -6 -44
-14z"/>
<path d="M3388 6813 c-21 -14 -38 -34 -38 -44 0 -22 18 -25 26 -4 3 8 14 17
24 20 10 3 20 17 23 30 2 14 4 25 3 24 0 0 -18 -12 -38 -26z"/>
<path d="M4207 6634 c-3 -3 1 -17 10 -30 14 -21 14 -24 0 -24 -8 0 -17 -5 -19
-11 -2 -6 -12 -7 -28 -1 l-24 9 22 12 c24 13 21 31 -4 31 -9 0 -30 -11 -49
-25 -23 -18 -31 -31 -28 -45 4 -16 0 -20 -21 -20 -25 0 -120 -46 -161 -79 -37
-30 -60 -38 -95 -35 -19 1 -29 0 -22 -3 6 -2 12 -8 12 -12 0 -11 -47 -61 -57
-61 -5 0 -16 -9 -26 -20 -14 -16 -15 -24 -5 -45 13 -29 15 -29 51 -12 38 17
36 41 -3 32 -17 -4 -30 -2 -30 3 0 23 79 23 107 0 10 -7 14 -8 10 -1 -4 7 1
14 14 18 11 4 29 15 39 25 20 20 152 46 171 34 9 -5 10 -2 6 9 -9 23 15 22 91
-3 44 -14 74 -18 103 -14 28 5 43 3 49 -6 7 -12 233 -43 300 -41 19 0 52 1 73
1 34 0 37 3 32 20 -8 24 -3 25 35 5 24 -12 34 -13 49 -3 15 9 22 9 35 -3 49
-44 49 -44 42 -8 -3 19 -3 28 0 22 3 -7 14 -13 24 -13 10 0 20 -8 23 -19 3
-14 14 -18 46 -18 22 0 47 -6 56 -13 20 -17 80 -29 96 -19 10 6 5 11 -16 20
l-30 11 25 12 c31 13 28 41 -6 73 -29 27 -31 37 -3 30 28 -7 37 20 13 41 -26
24 -107 62 -131 62 -10 0 -23 -4 -29 -10 -6 -6 -18 -5 -35 4 -37 19 -289 40
-289 24 0 -4 -9 -8 -20 -8 -12 0 -31 -6 -43 -14 -12 -8 -46 -16 -74 -18 -58
-6 -68 6 -33 37 11 10 20 13 20 7 0 -7 8 -12 18 -12 16 1 16 1 -1 11 -12 7
-16 17 -12 30 5 14 2 19 -13 19 -10 0 -22 -3 -25 -7 -4 -3 -21 -8 -39 -10 -18
-2 -37 -8 -42 -13 -6 -6 -19 -10 -30 -10 -20 1 -20 1 -3 14 21 16 22 36 2 36
-8 0 -15 7 -15 15 0 11 -9 15 -32 14 -18 -1 -42 1 -54 4 -11 4 -23 4 -27 1z
m-72 -74 c-3 -5 -10 -10 -16 -10 -5 0 -9 5 -9 10 0 6 7 10 16 10 8 0 12 -4 9
-10z m170 -30 c18 -20 18 -21 -6 -45 -32 -32 -79 -44 -79 -20 0 9 9 19 20 22
26 7 26 29 -1 36 -12 3 -18 10 -14 16 11 18 61 12 80 -9z m-95 -21 c0 -20 -8
-23 -35 -13 -15 6 -14 8 1 25 19 21 34 16 34 -12z m170 -9 c0 -10 7 -23 15
-28 10 -5 13 -15 9 -25 -8 -21 -24 -12 -24 14 0 14 -7 19 -30 19 -36 0 -37 6
-8 30 26 21 38 17 38 -10z m624 -15 c20 -30 20 -35 2 -35 -22 0 -60 35 -52 48
12 19 33 14 50 -13z m-854 5 c11 -7 8 -10 -16 -10 -19 0 -34 -6 -38 -15 -3 -8
-14 -15 -25 -15 -11 0 -23 -4 -26 -10 -7 -12 -55 -14 -55 -2 0 13 57 42 83 42
14 0 29 5 32 10 8 13 26 13 45 0z m280 -96 c0 -8 -5 -12 -10 -9 -6 4 -8 11 -5
16 9 14 15 11 15 -7z m435 6 c3 -5 1 -10 -4 -10 -6 0 -11 5 -11 10 0 6 2 10 4
10 3 0 8 -4 11 -10z m175 -50 c0 -4 10 -11 23 -15 l22 -8 -22 -4 c-12 -2 -31
1 -42 7 -27 14 -28 40 -1 33 11 -3 20 -9 20 -13z"/>
<path d="M6385 6571 c-6 -11 9 -23 19 -14 9 9 7 23 -3 23 -6 0 -12 -4 -16 -9z"/>
<path d="M6288 6444 c-8 -8 3 -44 13 -44 5 0 9 11 9 25 0 24 -10 32 -22 19z"/>
<path d="M6260 6364 c0 -8 5 -12 10 -9 6 3 10 10 10 16 0 5 -4 9 -10 9 -5 0
-10 -7 -10 -16z"/>
<path d="M3681 6264 c0 -11 3 -14 6 -6 3 7 2 16 -1 19 -3 4 -6 -2 -5 -13z"/>
<path d="M3800 6261 c0 -6 5 -13 10 -16 6 -3 10 1 10 9 0 9 -4 16 -10 16 -5 0
-10 -4 -10 -9z"/>
<path d="M3697 6224 c-8 -8 1 -24 14 -24 5 0 9 7 9 15 0 15 -12 20 -23 9z"/>
<path d="M4645 6083 c-11 -3 -30 -14 -42 -26 -21 -18 -28 -17 -24 5 1 8 -61 4
-76 -5 -6 -4 -40 -11 -76 -16 -36 -5 -73 -14 -83 -19 -28 -15 -172 -62 -190
-62 -8 0 -17 -6 -20 -14 -6 -17 -91 -59 -103 -52 -7 5 -22 -8 -82 -73 -10 -12
-19 -25 -19 -29 0 -4 -9 -8 -20 -9 -11 -1 -20 2 -20 6 0 40 126 181 161 181
10 0 21 5 24 10 3 6 17 10 30 10 37 0 115 37 115 55 0 13 -6 15 -32 10 -33 -7
-79 -29 -108 -51 -8 -7 -29 -15 -46 -18 -47 -10 -127 -81 -144 -129 -8 -23
-21 -48 -28 -56 -18 -18 -9 -36 16 -34 20 2 20 1 8 -35 -18 -50 -6 -82 32 -82
21 0 40 12 74 50 25 28 52 50 60 50 7 1 26 21 42 47 16 25 43 53 59 62 17 9
45 29 64 45 39 33 60 29 61 -13 1 -39 55 -140 91 -168 31 -25 97 -30 196 -15
95 15 129 33 153 83 30 65 44 115 40 146 -3 25 0 28 32 31 31 3 73 -10 120
-37 8 -4 43 -22 77 -38 59 -29 70 -43 33 -43 -9 0 -25 -6 -36 -14 -19 -15 -19
-15 1 -30 20 -15 80 -21 109 -10 12 5 13 10 3 31 -14 32 4 45 56 39 44 -5 48
5 10 24 -66 33 -84 70 -35 70 15 0 33 -5 39 -11 23 -23 34 1 14 29 -24 33 -64
55 -160 86 -63 21 -93 24 -215 24 -77 0 -150 -2 -161 -5z m-147 -119 c7 -2 12
-20 12 -43 0 -38 -2 -41 -37 -50 -20 -6 -47 -8 -60 -5 -20 5 -23 12 -23 54 0
38 4 49 18 53 16 4 63 -1 90 -9z m174 -156 c-11 -11 -32 -3 -32 12 0 12 34 18
39 7 2 -5 -1 -13 -7 -19z"/>
<path d="M4930 5835 c-14 -16 -10 -18 14 -9 9 3 16 10 16 15 0 14 -16 11 -30
-6z"/>
<path d="M5170 5828 l-25 -11 30 -7 c29 -6 55 4 55 21 0 12 -29 10 -60 -3z"/>
<path d="M4930 5776 c0 -2 7 -6 15 -10 8 -3 15 -1 15 4 0 6 -7 10 -15 10 -8 0
-15 -2 -15 -4z"/>
<path d="M4820 5705 c0 -8 5 -15 10 -15 6 0 10 7 10 15 0 8 -4 15 -10 15 -5 0
-10 -7 -10 -15z"/>
<path d="M4027 5688 c-2 -7 3 -20 11 -28 15 -14 18 -14 34 2 11 11 16 23 13
28 -9 14 -53 12 -58 -2z"/>
<path d="M4002 5650 c0 -14 2 -19 5 -12 2 6 2 18 0 25 -3 6 -5 1 -5 -13z"/>
<path d="M4245 5621 c-7 -12 12 -24 25 -16 11 7 4 25 -10 25 -5 0 -11 -4 -15
-9z"/>
<path d="M4332 5611 c-11 -7 -11 -9 1 -14 16 -6 27 0 27 15 0 10 -11 10 -28
-1z"/>
<path d="M2990 4960 c0 -5 5 -10 10 -10 6 0 10 5 10 10 0 6 -4 10 -10 10 -5 0
-10 -4 -10 -10z"/>
<path d="M5303 4544 c-35 -17 -43 -34 -18 -34 9 0 24 -14 33 -31 19 -34 1 -33
192 -7 l95 13 -22 22 c-12 12 -37 24 -55 27 -18 2 -63 9 -99 15 -84 14 -87 14
-126 -5z"/>
<path d="M6035 4190 c-3 -5 -4 -14 0 -20 8 -13 35 -1 35 16 0 16 -26 19 -35 4z"/>
<path d="M5701 4173 c-8 -14 -12 -15 -19 -5 -7 10 -11 10 -22 -3 -10 -12 -15
-13 -28 -3 -13 11 -15 10 -10 -9 5 -20 2 -23 -22 -23 -31 0 -36 -9 -51 -83 -5
-27 -18 -61 -29 -77 -11 -15 -20 -35 -20 -44 0 -9 -8 -20 -17 -23 -10 -4 -22
-12 -26 -20 -13 -21 -27 -15 -27 11 0 14 -4 27 -9 30 -10 6 -21 -26 -21 -64 0
-20 -2 -22 -10 -10 -16 24 -12 60 10 87 18 23 27 53 15 53 -2 0 -15 -5 -28
-11 -17 -8 -27 -26 -40 -75 -10 -35 -15 -75 -11 -89 4 -15 2 -25 -5 -25 -6 0
-11 9 -11 19 0 11 -7 27 -16 36 -9 8 -13 22 -10 30 3 10 0 12 -11 8 -35 -14
12 -134 59 -149 10 -3 18 -11 18 -17 0 -7 7 -23 16 -35 12 -18 19 -20 35 -11
16 8 23 6 37 -9 9 -11 29 -23 45 -26 22 -5 27 -3 27 14 0 16 5 19 29 14 34 -7
47 8 25 30 -8 9 -14 24 -12 33 4 22 38 30 38 9 0 -30 20 -26 34 7 8 19 19 38
25 41 18 11 13 26 -9 26 -23 0 -25 9 -7 34 12 17 14 16 25 -8 14 -31 26 -31
67 -5 17 11 42 25 56 31 15 6 32 26 40 44 7 18 18 35 26 38 8 3 13 21 13 45 0
22 5 51 11 65 10 20 9 30 -5 51 -10 15 -15 33 -12 40 7 21 -19 37 -48 29 -17
-4 -26 -13 -26 -26 0 -14 -5 -18 -16 -14 -9 3 -18 6 -20 6 -2 0 -4 9 -4 19 0
10 -7 22 -16 25 -22 8 -22 8 -33 -11z m49 -51 c0 -14 -39 -46 -47 -39 -3 4 2
16 12 27 19 21 35 26 35 12z m-150 -97 c-16 -19 -30 -19 -30 -1 0 8 8 16 18
18 24 6 27 1 12 -17z m-170 -236 c0 -5 -4 -9 -10 -9 -5 0 -10 7 -10 16 0 8 5
12 10 9 6 -3 10 -10 10 -16z m84 -82 c13 -20 5 -30 -18 -21 -9 3 -16 15 -16
26 0 22 18 20 34 -5z"/>
<path d="M5890 3995 c0 -8 5 -15 10 -15 6 0 10 7 10 15 0 8 -4 15 -10 15 -5 0
-10 -7 -10 -15z"/>
<path d="M5214 3799 c-3 -6 -1 -16 5 -22 6 -6 11 -27 12 -46 0 -32 1 -33 9
-13 5 12 17 22 26 22 15 0 15 3 -4 23 -12 13 -22 29 -22 35 0 15 -17 16 -26 1z"/>
<path d="M5124 3771 c-12 -11 -24 -26 -27 -33 -4 -10 -8 -10 -16 2 -5 8 -13
11 -17 7 -4 -4 -2 -13 4 -19 7 -7 12 -21 12 -33 0 -12 4 -25 9 -30 5 -6 13
-26 18 -45 7 -25 16 -36 31 -38 12 -2 22 -8 22 -13 0 -5 9 -4 20 3 24 15 26
36 5 44 -8 4 -15 16 -15 28 0 12 -4 26 -9 32 -6 5 -11 33 -13 62 l-3 53 -21
-20z"/>
<path d="M3380 3739 c0 -5 5 -7 10 -4 6 3 10 8 10 11 0 2 -4 4 -10 4 -5 0 -10
-5 -10 -11z"/>
<path d="M5013 3717 c-12 -28 -6 -57 13 -57 8 0 14 -7 14 -16 0 -12 -6 -15
-25 -10 -20 5 -25 3 -25 -13 0 -11 -5 -23 -10 -26 -14 -9 19 -62 42 -68 10 -3
18 -12 18 -21 0 -22 36 -21 49 1 7 13 5 23 -6 35 -8 9 -16 40 -17 70 -2 29
-12 69 -23 90 -19 36 -20 36 -30 15z"/>
<path d="M5290 3715 c0 -14 -4 -25 -10 -25 -5 0 -10 -8 -10 -18 0 -12 18 -28
49 -45 58 -32 66 -33 44 -7 -10 11 -23 20 -30 20 -12 0 -17 29 -13 78 1 14 -4
22 -14 22 -10 0 -16 -9 -16 -25z"/>
<path d="M4905 3614 c-19 -21 -25 -23 -25 -10 0 25 -25 19 -40 -10 -10 -18
-11 -30 -4 -42 14 -21 34 -27 34 -9 0 20 42 56 47 40 3 -7 13 -23 23 -35 l19
-23 1 22 c0 12 -6 23 -12 26 -10 3 -10 7 1 20 14 18 9 47 -9 47 -6 0 -22 -12
-35 -26z"/>
<path d="M3367 3616 c-6 -15 1 -26 15 -26 4 0 8 9 8 20 0 23 -15 27 -23 6z"/>
<path d="M5982 3598 c-16 -16 -15 -28 2 -28 7 0 16 9 19 20 6 23 -3 26 -21 8z"/>
<path d="M4690 3567 c0 -8 -7 -28 -15 -43 -8 -16 -15 -50 -15 -75 0 -47 -19
-77 -40 -64 -12 8 -3 46 14 57 6 4 8 10 4 13 -3 4 -16 -3 -28 -15 -16 -16 -19
-28 -15 -54 5 -23 2 -36 -9 -45 -11 -9 -13 -18 -7 -30 5 -9 8 -49 7 -88 -3
-66 -2 -70 13 -55 15 14 16 12 19 -31 4 -65 26 -69 97 -17 30 22 55 47 55 55
0 21 35 37 65 29 18 -4 34 2 64 25 21 17 48 31 59 31 11 0 48 9 83 21 35 11
92 26 126 32 34 7 62 17 62 22 1 6 -25 10 -58 10 -32 1 -65 6 -73 12 -11 9
-16 8 -26 -8 -9 -14 -23 -19 -50 -19 -20 1 -66 -2 -102 -6 -54 -6 -63 -5 -54
7 21 28 15 70 -15 100 -16 16 -35 29 -41 29 -6 0 3 13 20 29 l31 28 -33 21
c-28 18 -34 19 -41 7 -12 -21 -27 -18 -27 5 0 11 -6 20 -12 20 -7 0 -23 3 -35
6 -17 5 -23 2 -23 -9z m160 -229 c0 -5 -4 -8 -10 -8 -5 0 -10 10 -10 23 0 18
2 19 10 7 5 -8 10 -18 10 -22z"/>
<path d="M4605 3560 c-20 -4 -26 -8 -17 -13 6 -5 12 -21 12 -37 0 -16 5 -32
10 -35 6 -4 10 6 10 22 0 16 5 34 11 40 18 18 6 29 -26 23z"/>
<path d="M6046 3520 c8 -64 20 -84 26 -42 2 17 -4 43 -14 63 l-19 34 7 -55z"/>
<path d="M5180 3526 c0 -14 29 -31 38 -22 5 5 -23 36 -32 36 -3 0 -6 -6 -6
-14z"/>
<path d="M5970 3513 c0 -22 2 -25 10 -13 13 20 13 40 0 40 -5 0 -10 -12 -10
-27z"/>
<path d="M5118 3482 c-16 -2 -28 -8 -28 -14 0 -5 8 -7 17 -4 9 4 20 1 24 -6 7
-10 11 -10 21 0 16 16 0 29 -34 24z"/>
<path d="M4882 3440 c0 -14 2 -19 5 -12 2 6 2 18 0 25 -3 6 -5 1 -5 -13z"/>
<path d="M4560 3378 c0 -19 2 -20 10 -8 13 19 13 30 0 30 -5 0 -10 -10 -10
-22z"/>
<path d="M4435 3180 c3 -5 8 -10 11 -10 2 0 4 5 4 10 0 6 -5 10 -11 10 -5 0
-7 -4 -4 -10z"/>
<path d="M3622 3118 c-7 -7 -12 -21 -12 -32 0 -18 1 -19 20 -1 20 18 27 45 12
45 -4 0 -13 -5 -20 -12z"/>
<path d="M4592 3068 c-7 -7 -12 -20 -12 -30 0 -15 4 -16 24 -7 16 8 22 17 19
30 -6 22 -14 24 -31 7z"/>
<path d="M7010 2966 c0 -2 7 -9 15 -16 12 -10 15 -10 15 4 0 9 -7 16 -15 16
-8 0 -15 -2 -15 -4z"/>
<path d="M6743 2914 c-3 -8 -1 -20 6 -27 8 -8 11 -4 11 16 0 30 -7 35 -17 11z"/>
<path d="M5949 2877 c-20 -18 -36 -22 -94 -22 -38 0 -75 3 -81 7 -17 11 -24
-2 -24 -44 0 -31 -4 -38 -19 -38 -11 0 -26 -3 -34 -6 -11 -4 -14 2 -11 26 4
36 -19 38 -24 2 -2 -12 -12 -28 -22 -35 -15 -11 -16 -15 -5 -31 13 -18 15 -17
43 3 30 21 62 28 62 14 0 -5 -13 -21 -29 -36 -37 -36 -46 -67 -20 -67 10 0 19
-3 19 -8 0 -10 -40 -44 -41 -34 -1 4 -2 14 -3 22 0 8 -11 16 -23 18 -20 3 -23
-1 -23 -27 0 -25 4 -31 23 -32 12 0 30 -2 39 -4 19 -3 43 42 47 90 0 8 5 15 9
15 4 0 8 -21 9 -47 2 -70 17 -113 38 -113 14 0 29 29 20 38 -3 3 -5 0 -5 -6 0
-7 -7 -12 -16 -12 -14 0 -15 8 -9 48 8 53 20 73 44 71 32 -3 40 1 43 23 2 12
9 23 16 26 23 7 12 -44 -19 -86 -29 -39 -29 -42 -10 -42 24 0 29 -28 6 -36
-32 -12 -13 -19 45 -16 l60 4 0 32 c0 39 25 76 51 76 11 0 30 9 42 20 12 11
27 18 35 15 16 -6 52 16 52 32 0 6 -6 13 -12 16 -10 3 -10 9 -2 24 9 15 8 23
-6 41 -23 27 -41 28 -58 2 -16 -25 -52 -27 -52 -2 0 10 4 22 10 28 6 6 -1 21
-19 41 l-28 32 -24 -22z m31 -119 c0 -37 -32 -97 -52 -98 -12 0 4 64 19 73 7
4 13 15 13 22 0 8 5 15 10 15 6 0 10 -5 10 -12z m63 6 c8 -8 -14 -54 -26 -54
-5 0 -6 7 -3 16 3 9 6 22 6 30 0 14 12 19 23 8z m-159 -19 c-4 -8 -8 -15 -10
-15 -2 0 -4 7 -4 15 0 8 4 15 10 15 5 0 7 -7 4 -15z m22 -121 c-4 -9 -9 -15
-11 -12 -3 3 -3 13 1 22 4 9 9 15 11 12 3 -3 3 -13 -1 -22z"/>
<path d="M6068 2878 c-10 -12 -15 -25 -12 -30 7 -11 37 28 32 42 -2 5 -11 0
-20 -12z"/>
<path d="M7240 2840 c0 -5 5 -10 11 -10 5 0 7 5 4 10 -3 6 -8 10 -11 10 -2 0
-4 -4 -4 -10z"/>
<path d="M5570 2831 c0 -5 -3 -18 -6 -28 -6 -16 -5 -16 9 2 19 23 21 35 7 35
-5 0 -10 -4 -10 -9z"/>
<path d="M7080 2750 c-6 -11 -7 -20 -2 -20 6 0 12 9 15 20 3 11 3 20 1 20 -2
0 -8 -9 -14 -20z"/>
<path d="M6265 2711 c-6 -11 9 -23 19 -14 9 9 7 23 -3 23 -6 0 -12 -4 -16 -9z"/>
<path d="M5525 2697 c-4 -10 -5 -21 -1 -24 10 -10 18 4 13 24 -4 17 -4 17 -12
0z"/>
<path d="M5580 2676 c0 -2 8 -10 18 -17 15 -13 16 -12 3 4 -13 16 -21 21 -21
13z"/>
<path d="M3400 2596 c0 -8 5 -18 10 -21 6 -3 10 1 10 9 0 8 -4 18 -10 21 -5 3
-10 -1 -10 -9z"/>
<path d="M3790 2566 c0 -8 5 -18 10 -21 6 -3 10 1 10 9 0 8 -4 18 -10 21 -5 3
-10 -1 -10 -9z"/>
<path d="M5715 2570 c-3 -5 -2 -10 4 -10 5 0 13 5 16 10 3 6 2 10 -4 10 -5 0
-13 -4 -16 -10z"/>
<path d="M6006 2554 c-9 -22 -8 -24 9 -24 8 0 15 9 15 20 0 24 -15 27 -24 4z"/>
<path d="M3820 2520 c0 -5 5 -10 10 -10 6 0 10 5 10 10 0 6 -4 10 -10 10 -5 0
-10 -4 -10 -10z"/>
<path d="M4423 2490 c-27 -21 -29 -30 -8 -30 13 0 41 37 33 45 -2 2 -13 -5
-25 -15z"/>
<path d="M5935 2480 c3 -5 8 -10 11 -10 2 0 4 5 4 10 0 6 -5 10 -11 10 -5 0
-7 -4 -4 -10z"/>
<path d="M4080 2395 c0 -8 5 -15 10 -15 6 0 10 7 10 15 0 8 -4 15 -10 15 -5 0
-10 -7 -10 -15z"/>
<path d="M6462 2361 c-11 -6 -10 -10 4 -15 20 -8 32 0 18 14 -5 5 -15 5 -22 1z"/>
<path d="M3901 2341 c-10 -7 -10 -10 -1 -16 6 -4 16 -3 22 3 13 13 -4 23 -21
13z"/>
<path d="M6247 2273 c-4 -3 -7 -15 -7 -25 0 -26 24 -17 28 10 3 21 -8 29 -21
15z"/>
<path d="M4140 2242 c0 -14 8 -19 30 -20 16 0 32 3 35 8 6 10 -1 15 -37 24
-23 5 -28 3 -28 -12z"/>
<path d="M4480 2219 c0 -5 5 -7 10 -4 6 3 10 8 10 11 0 2 -4 4 -10 4 -5 0 -10
-5 -10 -11z"/>
<path d="M4646 2201 c-4 -7 -5 -15 -2 -18 9 -9 19 4 14 18 -4 11 -6 11 -12 0z"/>
<path d="M5080 2195 c-10 -12 -10 -18 0 -30 15 -18 30 -11 30 15 0 26 -15 33
-30 15z"/>
<path d="M4580 2140 c0 -5 5 -10 10 -10 6 0 10 5 10 10 0 6 -4 10 -10 10 -5 0
-10 -4 -10 -10z"/>
<path d="M5410 2140 c0 -5 5 -10 11 -10 5 0 7 5 4 10 -3 6 -8 10 -11 10 -2 0
-4 -4 -4 -10z"/>
<path d="M5290 2121 c0 -6 5 -13 10 -16 6 -3 10 1 10 9 0 9 -4 16 -10 16 -5 0
-10 -4 -10 -9z"/>
<path d="M6241 2114 c0 -11 3 -14 6 -6 3 7 2 16 -1 19 -3 4 -6 -2 -5 -13z"/>
<path d="M5605 2010 c-8 -13 -3 -90 6 -96 15 -9 31 38 24 72 -6 34 -18 43 -30
24z"/>
<path d="M6031 1954 c0 -11 3 -14 6 -6 3 7 2 16 -1 19 -3 4 -6 -2 -5 -13z"/>
<path d="M5770 1945 c0 -8 5 -15 10 -15 6 0 10 7 10 15 0 8 -4 15 -10 15 -5 0
-10 -7 -10 -15z"/>
<path d="M6010 1910 c0 -5 5 -10 10 -10 6 0 10 5 10 10 0 6 -4 10 -10 10 -5 0
-10 -4 -10 -10z"/>
<path d="M5570 1890 c0 -5 -7 -10 -15 -10 -18 0 -20 -19 -2 -21 14 -2 41 2 45
6 1 1 0 10 -4 19 -7 17 -24 22 -24 6z"/>
<path d="M5755 1860 c-3 -5 1 -10 10 -10 9 0 13 5 10 10 -3 6 -8 10 -10 10 -2
0 -7 -4 -10 -10z"/>
<path d="M3354 1844 c-12 -8 -72 -32 -133 -54 -87 -30 -125 -49 -164 -83 -29
-24 -69 -52 -90 -62 -20 -9 -45 -30 -54 -46 -9 -15 -36 -44 -60 -64 -24 -20
-50 -51 -58 -68 -8 -18 -31 -59 -50 -92 -53 -92 -62 -115 -75 -185 -7 -36 -19
-79 -26 -97 -8 -17 -14 -37 -14 -45 -1 -7 -8 -31 -16 -53 -8 -22 -18 -86 -23
-143 -7 -94 -10 -105 -37 -133 -36 -38 -108 -89 -126 -89 -7 0 -61 -18 -120
-40 -65 -24 -141 -43 -195 -50 -129 -17 -360 -57 -423 -75 -30 -8 -70 -15 -87
-15 -49 0 -212 -30 -252 -46 -20 -8 -56 -18 -81 -23 -25 -5 -81 -18 -125 -29
-44 -12 -114 -27 -155 -36 -117 -23 -161 -35 -210 -55 -67 -29 -148 -50 -215
-57 -35 -4 -99 -23 -152 -45 -51 -22 -99 -39 -107 -39 -8 0 -37 -5 -65 -12
l-51 -11 0 -49 0 -48 1679 0 1679 0 6 22 c8 33 7 66 -3 86 -9 16 -19 41 -29
72 -2 8 -6 31 -7 50 -2 41 -19 85 -35 95 -13 8 -4 82 12 102 5 7 7 29 4 50 -7
54 11 102 37 95 16 -4 18 -1 12 17 -4 13 -7 55 -7 94 0 40 -3 77 -7 82 -3 6
-7 46 -8 90 -2 112 -9 179 -21 202 -6 10 -8 37 -6 59 3 21 1 89 -5 149 -17
187 -40 446 -47 523 l-6 72 -31 -1 c-18 0 -42 -7 -53 -15z m136 -1564 c0 -5
-5 -10 -11 -10 -5 0 -7 5 -4 10 3 6 8 10 11 10 2 0 4 -4 4 -10z"/>
<path d="M5687 1853 c-4 -3 -7 -11 -7 -17 0 -6 5 -5 12 2 6 6 9 14 7 17 -3 3
-9 2 -12 -2z"/>
<path d="M5671 1804 c0 -11 3 -14 6 -6 3 7 2 16 -1 19 -3 4 -6 -2 -5 -13z"/>
<path d="M3717 1758 c7 -40 14 -50 31 -39 9 6 10 15 1 39 -15 44 -41 43 -32 0z"/>
<path d="M7130 525 c-7 -9 -11 -18 -8 -20 3 -3 11 1 18 10 7 9 11 18 8 20 -3
3 -11 -1 -18 -10z"/>
<path d="M7200 495 c-14 -16 -3 -20 19 -6 8 5 9 11 3 15 -5 3 -15 -1 -22 -9z"/>
<path d="M7050 410 c0 -5 5 -10 10 -10 6 0 10 5 10 10 0 6 -4 10 -10 10 -5 0
-10 -4 -10 -10z"/>
<path d="M7176 330 c-63 -40 -98 -112 -61 -126 21 -9 47 15 40 37 -7 21 21 69
41 69 8 0 14 -4 14 -10 0 -5 -6 -9 -12 -7 -7 1 -13 -5 -13 -13 0 -18 33 -15
54 5 12 12 11 16 -3 30 -9 9 -16 21 -16 26 0 13 -11 10 -44 -11z"/>
<path d="M7044 191 c-41 -25 -44 -30 -48 -91 -4 -49 8 -67 21 -32 4 9 22 36
40 60 30 40 43 82 26 82 -5 0 -22 -9 -39 -19z"/>
<path d="M7238 3 c7 -3 16 -2 19 1 4 3 -2 6 -13 5 -11 0 -14 -3 -6 -6z"/>
</g>
</svg>
